<?xml version="1.0" encoding="UTF-8" standalone="no"?><!DOCTYPE svg PUBLIC "-//W3C//DTD SVG 1.1//EN" "http://www.w3.org/Graphics/SVG/1.1/DTD/svg11.dtd"><svg width="100%" height="100%" viewBox="0 0 1430 295" version="1.1" xmlns="http://www.w3.org/2000/svg" xmlns:xlink="http://www.w3.org/1999/xlink" xml:space="preserve" xmlns:serif="http://www.serif.com/" style="fill-rule:evenodd;clip-rule:evenodd;stroke-linejoin:round;stroke-miterlimit:1.41421;"><g transform="matrix(0.879757,0,0,0.879757,-49.2938,-114.195)"><path d="M136.953,139.567l-18.599,0c-0.333,0 -0.572,-0.064 -0.716,-0.191c-0.144,-0.128 -0.216,-0.297 -0.216,-0.508c0,-0.211 0.072,-0.38 0.216,-0.508c0.144,-0.128 0.383,-0.191 0.716,-0.191l18.599,0c0.344,0 0.585,0.063 0.724,0.191c0.139,0.128 0.208,0.297 0.208,0.508c0,0.211 -0.069,0.38 -0.208,0.508c-0.139,0.127 -0.38,0.191 -0.724,0.191Z" style="fill-rule:nonzero;"/><path d="M157.416,139.567l-18.598,0c-0.333,0 -0.572,-0.064 -0.716,-0.191c-0.145,-0.128 -0.217,-0.297 -0.217,-0.508c0,-0.211 0.072,-0.38 0.217,-0.508c0.144,-0.128 0.383,-0.191 0.716,-0.191l18.598,0c0.344,0 0.586,0.063 0.725,0.191c0.138,0.128 0.208,0.297 0.208,0.508c0,0.211 -0.07,0.38 -0.208,0.508c-0.139,0.127 -0.381,0.191 -0.725,0.191Z" style="fill-rule:nonzero;"/><path d="M177.88,139.567l-18.599,0c-0.333,0 -0.572,-0.064 -0.716,-0.191c-0.144,-0.128 -0.216,-0.297 -0.216,-0.508c0,-0.211 0.072,-0.38 0.216,-0.508c0.144,-0.128 0.383,-0.191 0.716,-0.191l18.599,0c0.344,0 0.585,0.063 0.724,0.191c0.139,0.128 0.208,0.297 0.208,0.508c0,0.211 -0.069,0.38 -0.208,0.508c-0.139,0.127 -0.38,0.191 -0.724,0.191Z" style="fill-rule:nonzero;"/><path d="M198.343,139.567l-18.598,0c-0.333,0 -0.572,-0.064 -0.716,-0.191c-0.145,-0.128 -0.217,-0.297 -0.217,-0.508c0,-0.211 0.072,-0.38 0.217,-0.508c0.144,-0.128 0.383,-0.191 0.716,-0.191l18.598,0c0.344,0 0.586,0.063 0.725,0.191c0.138,0.128 0.208,0.297 0.208,0.508c0,0.211 -0.07,0.38 -0.208,0.508c-0.139,0.127 -0.381,0.191 -0.725,0.191Z" style="fill-rule:nonzero;"/><path d="M321.124,139.567l-18.598,0c-0.333,0 -0.572,-0.064 -0.716,-0.191c-0.144,-0.128 -0.217,-0.297 -0.217,-0.508c0,-0.211 0.073,-0.38 0.217,-0.508c0.144,-0.128 0.383,-0.191 0.716,-0.191l18.598,0c0.345,0 0.586,0.063 0.725,0.191c0.139,0.128 0.208,0.297 0.208,0.508c0,0.211 -0.069,0.38 -0.208,0.508c-0.139,0.127 -0.38,0.191 -0.725,0.191Z" style="fill-rule:nonzero;"/><path d="M341.588,139.567l-18.599,0c-0.333,0 -0.571,-0.064 -0.716,-0.191c-0.144,-0.128 -0.216,-0.297 -0.216,-0.508c0,-0.211 0.072,-0.38 0.216,-0.508c0.145,-0.128 0.383,-0.191 0.716,-0.191l18.599,0c0.344,0 0.586,0.063 0.724,0.191c0.139,0.128 0.208,0.297 0.208,0.508c0,0.211 -0.069,0.38 -0.208,0.508c-0.138,0.127 -0.38,0.191 -0.724,0.191Z" style="fill-rule:nonzero;"/><path d="M362.051,139.567l-18.598,0c-0.333,0 -0.572,-0.064 -0.716,-0.191c-0.144,-0.128 -0.217,-0.297 -0.217,-0.508c0,-0.211 0.073,-0.38 0.217,-0.508c0.144,-0.128 0.383,-0.191 0.716,-0.191l18.598,0c0.345,0 0.586,0.063 0.725,0.191c0.139,0.128 0.208,0.297 0.208,0.508c0,0.211 -0.069,0.38 -0.208,0.508c-0.139,0.127 -0.38,0.191 -0.725,0.191Z" style="fill-rule:nonzero;"/><path d="M382.515,139.567l-18.599,0c-0.333,0 -0.571,-0.064 -0.716,-0.191c-0.144,-0.128 -0.216,-0.297 -0.216,-0.508c0,-0.211 0.072,-0.38 0.216,-0.508c0.145,-0.128 0.383,-0.191 0.716,-0.191l18.599,0c0.344,0 0.586,0.063 0.724,0.191c0.139,0.128 0.208,0.297 0.208,0.508c0,0.211 -0.069,0.38 -0.208,0.508c-0.138,0.127 -0.38,0.191 -0.724,0.191Z" style="fill-rule:nonzero;"/><path d="M402.979,139.567l-18.599,0c-0.333,0 -0.572,-0.064 -0.716,-0.191c-0.144,-0.128 -0.217,-0.297 -0.217,-0.508c0,-0.211 0.073,-0.38 0.217,-0.508c0.144,-0.128 0.383,-0.191 0.716,-0.191l18.599,0c0.344,0 0.585,0.063 0.724,0.191c0.139,0.128 0.208,0.297 0.208,0.508c0,0.211 -0.069,0.38 -0.208,0.508c-0.139,0.127 -0.38,0.191 -0.724,0.191Z" style="fill-rule:nonzero;"/><path d="M955.494,139.567l-18.599,0c-0.333,0 -0.572,-0.064 -0.716,-0.191c-0.144,-0.128 -0.217,-0.297 -0.217,-0.508c0,-0.211 0.073,-0.38 0.217,-0.508c0.144,-0.128 0.383,-0.191 0.716,-0.191l18.599,0c0.344,0 0.585,0.063 0.724,0.191c0.139,0.128 0.208,0.297 0.208,0.508c0,0.211 -0.069,0.38 -0.208,0.508c-0.139,0.127 -0.38,0.191 -0.724,0.191Z" style="fill-rule:nonzero;"/><path d="M1139.66,139.567l-18.598,0c-0.333,0 -0.572,-0.064 -0.716,-0.191c-0.145,-0.128 -0.217,-0.297 -0.217,-0.508c0,-0.211 0.072,-0.38 0.217,-0.508c0.144,-0.128 0.383,-0.191 0.716,-0.191l18.598,0c0.344,0 0.586,0.063 0.725,0.191c0.138,0.128 0.208,0.297 0.208,0.508c0,0.211 -0.07,0.38 -0.208,0.508c-0.139,0.127 -0.381,0.191 -0.725,0.191Z" style="fill-rule:nonzero;"/><path d="M1160.13,139.567l-18.599,0c-0.333,0 -0.572,-0.064 -0.716,-0.191c-0.144,-0.128 -0.216,-0.297 -0.216,-0.508c0,-0.211 0.072,-0.38 0.216,-0.508c0.144,-0.128 0.383,-0.191 0.716,-0.191l18.599,0c0.344,0 0.585,0.063 0.724,0.191c0.139,0.128 0.208,0.297 0.208,0.508c0,0.211 -0.069,0.38 -0.208,0.508c-0.139,0.127 -0.38,0.191 -0.724,0.191Z" style="fill-rule:nonzero;"/><path d="M1180.59,139.567l-18.598,0c-0.333,0 -0.572,-0.064 -0.716,-0.191c-0.145,-0.128 -0.217,-0.297 -0.217,-0.508c0,-0.211 0.072,-0.38 0.217,-0.508c0.144,-0.128 0.383,-0.191 0.716,-0.191l18.598,0c0.344,0 0.586,0.063 0.725,0.191c0.138,0.128 0.208,0.297 0.208,0.508c0,0.211 -0.07,0.38 -0.208,0.508c-0.139,0.127 -0.381,0.191 -0.725,0.191Z" style="fill-rule:nonzero;"/><path d="M1201.06,139.567l-18.599,0c-0.333,0 -0.572,-0.064 -0.716,-0.191c-0.144,-0.128 -0.216,-0.297 -0.216,-0.508c0,-0.211 0.072,-0.38 0.216,-0.508c0.144,-0.128 0.383,-0.191 0.716,-0.191l18.599,0c0.344,0 0.585,0.063 0.724,0.191c0.139,0.128 0.208,0.297 0.208,0.508c0,0.211 -0.069,0.38 -0.208,0.508c-0.139,0.127 -0.38,0.191 -0.724,0.191Z" style="fill-rule:nonzero;"/><path d="M1221.52,139.567l-18.598,0c-0.333,0 -0.572,-0.064 -0.716,-0.191c-0.145,-0.128 -0.217,-0.297 -0.217,-0.508c0,-0.211 0.072,-0.38 0.217,-0.508c0.144,-0.128 0.383,-0.191 0.716,-0.191l18.598,0c0.344,0 0.586,0.063 0.725,0.191c0.138,0.128 0.208,0.297 0.208,0.508c0,0.211 -0.07,0.38 -0.208,0.508c-0.139,0.127 -0.381,0.191 -0.725,0.191Z" style="fill-rule:nonzero;"/><path d="M1262.45,139.567l-18.598,0c-0.333,0 -0.572,-0.064 -0.716,-0.191c-0.145,-0.128 -0.217,-0.297 -0.217,-0.508c0,-0.211 0.072,-0.38 0.217,-0.508c0.144,-0.128 0.383,-0.191 0.716,-0.191l18.598,0c0.344,0 0.586,0.063 0.725,0.191c0.138,0.128 0.208,0.297 0.208,0.508c0,0.211 -0.07,0.38 -0.208,0.508c-0.139,0.127 -0.381,0.191 -0.725,0.191Z" style="fill-rule:nonzero;"/><path d="M1303.37,139.567l-18.598,0c-0.333,0 -0.572,-0.064 -0.716,-0.191c-0.145,-0.128 -0.217,-0.297 -0.217,-0.508c0,-0.211 0.072,-0.38 0.217,-0.508c0.144,-0.128 0.383,-0.191 0.716,-0.191l18.598,0c0.345,0 0.586,0.063 0.725,0.191c0.138,0.128 0.208,0.297 0.208,0.508c0,0.211 -0.07,0.38 -0.208,0.508c-0.139,0.127 -0.38,0.191 -0.725,0.191Z" style="fill-rule:nonzero;"/><path d="M1548.94,139.567l-18.599,0c-0.333,0 -0.572,-0.064 -0.716,-0.191c-0.144,-0.128 -0.216,-0.297 -0.216,-0.508c0,-0.211 0.072,-0.38 0.216,-0.508c0.144,-0.128 0.383,-0.191 0.716,-0.191l18.599,0c0.344,0 0.585,0.063 0.724,0.191c0.139,0.128 0.208,0.297 0.208,0.508c0,0.211 -0.069,0.38 -0.208,0.508c-0.139,0.127 -0.38,0.191 -0.724,0.191Z" style="fill-rule:nonzero;"/><path d="M1569.4,139.567l-18.598,0c-0.333,0 -0.572,-0.064 -0.716,-0.191c-0.145,-0.128 -0.217,-0.297 -0.217,-0.508c0,-0.211 0.072,-0.38 0.217,-0.508c0.144,-0.128 0.383,-0.191 0.716,-0.191l18.598,0c0.344,0 0.586,0.063 0.724,0.191c0.139,0.128 0.209,0.297 0.209,0.508c0,0.211 -0.07,0.38 -0.209,0.508c-0.138,0.127 -0.38,0.191 -0.724,0.191Z" style="fill-rule:nonzero;"/><path d="M1589.86,139.567l-18.599,0c-0.333,0 -0.572,-0.064 -0.716,-0.191c-0.144,-0.128 -0.216,-0.297 -0.216,-0.508c0,-0.211 0.072,-0.38 0.216,-0.508c0.144,-0.128 0.383,-0.191 0.716,-0.191l18.599,0c0.344,0 0.585,0.063 0.724,0.191c0.139,0.128 0.208,0.297 0.208,0.508c0,0.211 -0.069,0.38 -0.208,0.508c-0.139,0.127 -0.38,0.191 -0.724,0.191Z" style="fill-rule:nonzero;"/><path d="M1610.33,139.567l-18.598,0c-0.333,0 -0.572,-0.064 -0.716,-0.191c-0.145,-0.128 -0.217,-0.297 -0.217,-0.508c0,-0.211 0.072,-0.38 0.217,-0.508c0.144,-0.128 0.383,-0.191 0.716,-0.191l18.598,0c0.344,0 0.586,0.063 0.725,0.191c0.138,0.128 0.208,0.297 0.208,0.508c0,0.211 -0.07,0.38 -0.208,0.508c-0.139,0.127 -0.381,0.191 -0.725,0.191Z" style="fill-rule:nonzero;"/><path d="M113.476,154.415l-11.256,24.11c-0.189,0.41 -0.433,0.616 -0.733,0.616c-0.189,0 -0.352,-0.07 -0.491,-0.209c-0.139,-0.138 -0.208,-0.291 -0.208,-0.457c0,-0.134 0.055,-0.317 0.166,-0.55l11.239,-24.11c0.123,-0.255 0.239,-0.422 0.35,-0.499c0.111,-0.078 0.244,-0.117 0.4,-0.117c0.188,0 0.352,0.069 0.491,0.208c0.139,0.139 0.208,0.292 0.208,0.458c0,0.122 -0.055,0.305 -0.166,0.55Z" style="fill-rule:nonzero;"/><path d="M154.403,154.415l-11.256,24.11c-0.189,0.41 -0.433,0.616 -0.733,0.616c-0.189,0 -0.352,-0.07 -0.491,-0.209c-0.139,-0.138 -0.208,-0.291 -0.208,-0.457c0,-0.134 0.055,-0.317 0.166,-0.55l11.239,-24.11c0.123,-0.255 0.239,-0.422 0.35,-0.499c0.111,-0.078 0.244,-0.117 0.4,-0.117c0.188,0 0.352,0.069 0.491,0.208c0.139,0.139 0.208,0.292 0.208,0.458c0,0.122 -0.055,0.305 -0.166,0.55Z" style="fill-rule:nonzero;"/><path d="M195.33,154.415l-11.256,24.11c-0.189,0.41 -0.433,0.616 -0.733,0.616c-0.189,0 -0.352,-0.07 -0.491,-0.209c-0.139,-0.138 -0.208,-0.291 -0.208,-0.457c0,-0.134 0.055,-0.317 0.166,-0.55l11.239,-24.11c0.123,-0.255 0.239,-0.422 0.35,-0.499c0.111,-0.078 0.244,-0.117 0.4,-0.117c0.188,0 0.352,0.069 0.491,0.208c0.139,0.139 0.208,0.292 0.208,0.458c0,0.122 -0.055,0.305 -0.166,0.55Z" style="fill-rule:nonzero;"/><path d="M292.069,156.379l-0.016,23.328c0,0.333 -0.064,0.571 -0.192,0.716c-0.128,0.144 -0.297,0.216 -0.508,0.216c-0.2,0 -0.366,-0.072 -0.499,-0.216c-0.133,-0.145 -0.2,-0.383 -0.2,-0.716l0,-23.328c0,-0.344 0.067,-0.588 0.2,-0.732c0.133,-0.145 0.299,-0.217 0.499,-0.217c0.211,0 0.383,0.072 0.516,0.217c0.134,0.144 0.2,0.388 0.2,0.732Z" style="fill-rule:nonzero;"/><path d="M362.051,185.668l-18.598,0c-0.333,0 -0.572,-0.064 -0.716,-0.192c-0.144,-0.128 -0.217,-0.297 -0.217,-0.508c0,-0.211 0.073,-0.38 0.217,-0.508c0.144,-0.127 0.383,-0.191 0.716,-0.191l18.598,0c0.345,0 0.586,0.064 0.725,0.191c0.139,0.128 0.208,0.297 0.208,0.508c0,0.211 -0.069,0.38 -0.208,0.508c-0.139,0.128 -0.38,0.192 -0.725,0.192Z" style="fill-rule:nonzero;"/><path d="M382.515,185.668l-18.599,0c-0.333,0 -0.571,-0.064 -0.716,-0.192c-0.144,-0.128 -0.216,-0.297 -0.216,-0.508c0,-0.211 0.072,-0.38 0.216,-0.508c0.145,-0.127 0.383,-0.191 0.716,-0.191l18.599,0c0.344,0 0.586,0.064 0.724,0.191c0.139,0.128 0.208,0.297 0.208,0.508c0,0.211 -0.069,0.38 -0.208,0.508c-0.138,0.128 -0.38,0.192 -0.724,0.192Z" style="fill-rule:nonzero;"/><path d="M402.979,185.668l-18.599,0c-0.333,0 -0.572,-0.064 -0.716,-0.192c-0.144,-0.128 -0.217,-0.297 -0.217,-0.508c0,-0.211 0.073,-0.38 0.217,-0.508c0.144,-0.127 0.383,-0.191 0.716,-0.191l18.599,0c0.344,0 0.585,0.064 0.724,0.191c0.139,0.128 0.208,0.297 0.208,0.508c0,0.211 -0.069,0.38 -0.208,0.508c-0.139,0.128 -0.38,0.192 -0.724,0.192Z" style="fill-rule:nonzero;"/><path d="M414.85,156.379l-0.016,23.328c0,0.333 -0.064,0.571 -0.192,0.716c-0.127,0.144 -0.297,0.216 -0.508,0.216c-0.199,0 -0.366,-0.072 -0.499,-0.216c-0.133,-0.145 -0.2,-0.383 -0.2,-0.716l0,-23.328c0,-0.344 0.067,-0.588 0.2,-0.732c0.133,-0.145 0.3,-0.217 0.499,-0.217c0.211,0 0.383,0.072 0.517,0.217c0.133,0.144 0.199,0.388 0.199,0.732Z" style="fill-rule:nonzero;"/><path d="M926.438,156.379l-0.016,23.328c0,0.333 -0.064,0.571 -0.192,0.716c-0.127,0.144 -0.297,0.216 -0.508,0.216c-0.199,0 -0.366,-0.072 -0.499,-0.216c-0.133,-0.145 -0.2,-0.383 -0.2,-0.716l0,-23.328c0,-0.344 0.067,-0.588 0.2,-0.732c0.133,-0.145 0.3,-0.217 0.499,-0.217c0.211,0 0.383,0.072 0.517,0.217c0.133,0.144 0.199,0.388 0.199,0.732Z" style="fill-rule:nonzero;"/><path d="M967.365,156.379l-0.016,23.328c0,0.333 -0.064,0.571 -0.192,0.716c-0.127,0.144 -0.297,0.216 -0.508,0.216c-0.199,0 -0.366,-0.072 -0.499,-0.216c-0.133,-0.145 -0.2,-0.383 -0.2,-0.716l0,-23.328c0,-0.344 0.067,-0.588 0.2,-0.732c0.133,-0.145 0.3,-0.217 0.499,-0.217c0.211,0 0.383,0.072 0.517,0.217c0.133,0.144 0.199,0.388 0.199,0.732Z" style="fill-rule:nonzero;"/><path d="M1116.19,154.415l-11.256,24.11c-0.188,0.41 -0.433,0.616 -0.732,0.616c-0.189,0 -0.353,-0.07 -0.492,-0.209c-0.138,-0.138 -0.208,-0.291 -0.208,-0.457c0,-0.134 0.056,-0.317 0.167,-0.55l11.239,-24.11c0.122,-0.255 0.239,-0.422 0.35,-0.499c0.111,-0.078 0.244,-0.117 0.399,-0.117c0.189,0 0.353,0.069 0.491,0.208c0.139,0.139 0.208,0.292 0.208,0.458c0,0.122 -0.055,0.305 -0.166,0.55Z" style="fill-rule:nonzero;"/><path d="M1180.59,185.668l-18.598,0c-0.333,0 -0.572,-0.064 -0.716,-0.192c-0.145,-0.128 -0.217,-0.297 -0.217,-0.508c0,-0.211 0.072,-0.38 0.217,-0.508c0.144,-0.127 0.383,-0.191 0.716,-0.191l18.598,0c0.344,0 0.586,0.064 0.725,0.191c0.138,0.128 0.208,0.297 0.208,0.508c0,0.211 -0.07,0.38 -0.208,0.508c-0.139,0.128 -0.381,0.192 -0.725,0.192Z" style="fill-rule:nonzero;"/><path d="M1201.06,185.668l-18.599,0c-0.333,0 -0.572,-0.064 -0.716,-0.192c-0.144,-0.128 -0.216,-0.297 -0.216,-0.508c0,-0.211 0.072,-0.38 0.216,-0.508c0.144,-0.127 0.383,-0.191 0.716,-0.191l18.599,0c0.344,0 0.585,0.064 0.724,0.191c0.139,0.128 0.208,0.297 0.208,0.508c0,0.211 -0.069,0.38 -0.208,0.508c-0.139,0.128 -0.38,0.192 -0.724,0.192Z" style="fill-rule:nonzero;"/><path d="M1221.52,185.668l-18.598,0c-0.333,0 -0.572,-0.064 -0.716,-0.192c-0.145,-0.128 -0.217,-0.297 -0.217,-0.508c0,-0.211 0.072,-0.38 0.217,-0.508c0.144,-0.127 0.383,-0.191 0.716,-0.191l18.598,0c0.344,0 0.586,0.064 0.725,0.191c0.138,0.128 0.208,0.297 0.208,0.508c0,0.211 -0.07,0.38 -0.208,0.508c-0.139,0.128 -0.381,0.192 -0.725,0.192Z" style="fill-rule:nonzero;"/><path d="M1232.53,168.035c0,-1.277 0.167,-2.631 0.5,-4.063c0.333,-1.432 0.971,-3.086 1.915,-4.962c0.943,-1.876 1.631,-3.008 2.064,-3.397c0.134,-0.122 0.278,-0.183 0.433,-0.183c0.2,0 0.369,0.067 0.508,0.2c0.139,0.133 0.208,0.294 0.208,0.483c0,0.111 -0.039,0.233 -0.116,0.366c-1.221,2.242 -2.093,4.274 -2.614,6.094c-0.522,1.821 -0.783,3.641 -0.783,5.462c0,1.831 0.261,3.657 0.783,5.478c0.521,1.82 1.393,3.846 2.614,6.077c0.077,0.133 0.116,0.255 0.116,0.366c0,0.189 -0.069,0.353 -0.208,0.492c-0.139,0.138 -0.308,0.208 -0.508,0.208c-0.155,0 -0.299,-0.061 -0.433,-0.183c-0.41,-0.378 -1.082,-1.482 -2.014,-3.314c-0.933,-1.831 -1.577,-3.452 -1.932,-4.862c-0.355,-1.41 -0.533,-2.83 -0.533,-4.262Z" style="fill-rule:nonzero;"/><path d="M1262.45,185.668l-18.598,0c-0.333,0 -0.572,-0.064 -0.716,-0.192c-0.145,-0.128 -0.217,-0.297 -0.217,-0.508c0,-0.211 0.072,-0.38 0.217,-0.508c0.144,-0.127 0.383,-0.191 0.716,-0.191l18.598,0c0.344,0 0.586,0.064 0.725,0.191c0.138,0.128 0.208,0.297 0.208,0.508c0,0.211 -0.07,0.38 -0.208,0.508c-0.139,0.128 -0.381,0.192 -0.725,0.192Z" style="fill-rule:nonzero;"/><path d="M1274.02,168.051c0,1.277 -0.167,2.628 -0.5,4.055c-0.333,1.426 -0.971,3.08 -1.915,4.962c-0.943,1.881 -1.632,3.011 -2.064,3.388c-0.134,0.133 -0.278,0.2 -0.433,0.2c-0.2,0 -0.369,-0.07 -0.508,-0.208c-0.139,-0.139 -0.208,-0.303 -0.208,-0.492c0,-0.111 0.038,-0.233 0.116,-0.366c1.221,-2.231 2.093,-4.257 2.614,-6.077c0.522,-1.821 0.783,-3.641 0.783,-5.462c0,-1.831 -0.261,-3.657 -0.783,-5.478c-0.521,-1.82 -1.393,-3.852 -2.614,-6.094c-0.078,-0.133 -0.116,-0.255 -0.116,-0.366c0,-0.189 0.069,-0.35 0.208,-0.483c0.139,-0.133 0.308,-0.2 0.508,-0.2c0.155,0 0.299,0.061 0.433,0.183c0.41,0.378 1.082,1.482 2.014,3.314c0.933,1.831 1.576,3.452 1.932,4.862c0.355,1.41 0.533,2.83 0.533,4.262Z" style="fill-rule:nonzero;"/><path d="M1315.25,156.379l-0.016,23.328c0,0.333 -0.064,0.571 -0.192,0.716c-0.128,0.144 -0.297,0.216 -0.508,0.216c-0.2,0 -0.366,-0.072 -0.499,-0.216c-0.133,-0.145 -0.2,-0.383 -0.2,-0.716l0,-23.328c0,-0.344 0.067,-0.588 0.2,-0.732c0.133,-0.145 0.299,-0.217 0.499,-0.217c0.211,0 0.383,0.072 0.516,0.217c0.134,0.144 0.2,0.388 0.2,0.732Z" style="fill-rule:nonzero;"/><path d="M1534.63,153.915l11.239,24.11c0.111,0.244 0.166,0.422 0.166,0.533c0,0.177 -0.069,0.336 -0.208,0.474c-0.138,0.139 -0.302,0.208 -0.491,0.208c-0.311,0 -0.56,-0.205 -0.749,-0.616l-11.239,-24.126c-0.111,-0.233 -0.167,-0.411 -0.167,-0.533c0,-0.178 0.07,-0.333 0.208,-0.466c0.139,-0.133 0.303,-0.2 0.492,-0.2c0.299,0 0.549,0.205 0.749,0.616Z" style="fill-rule:nonzero;"/><path d="M1575.56,153.915l11.239,24.11c0.111,0.244 0.166,0.422 0.166,0.533c0,0.177 -0.069,0.336 -0.208,0.474c-0.138,0.139 -0.302,0.208 -0.491,0.208c-0.311,0 -0.56,-0.205 -0.749,-0.616l-11.239,-24.126c-0.111,-0.233 -0.167,-0.411 -0.167,-0.533c0,-0.178 0.07,-0.333 0.208,-0.466c0.139,-0.133 0.303,-0.2 0.492,-0.2c0.299,0 0.549,0.205 0.749,0.616Z" style="fill-rule:nonzero;"/><path d="M1616.49,153.915l11.239,24.11c0.111,0.244 0.167,0.422 0.167,0.533c0,0.177 -0.07,0.336 -0.209,0.474c-0.138,0.139 -0.302,0.208 -0.491,0.208c-0.311,0 -0.56,-0.205 -0.749,-0.616l-11.239,-24.126c-0.111,-0.233 -0.167,-0.411 -0.167,-0.533c0,-0.178 0.07,-0.333 0.208,-0.466c0.139,-0.133 0.303,-0.2 0.492,-0.2c0.299,0 0.549,0.205 0.749,0.616Z" style="fill-rule:nonzero;"/><path d="M93.012,200.515l-11.256,24.11c-0.188,0.411 -0.433,0.616 -0.732,0.616c-0.189,0 -0.353,-0.069 -0.492,-0.208c-0.138,-0.139 -0.208,-0.292 -0.208,-0.458c0,-0.133 0.056,-0.316 0.167,-0.55l11.239,-24.11c0.122,-0.255 0.239,-0.421 0.35,-0.499c0.111,-0.078 0.244,-0.117 0.399,-0.117c0.189,0 0.353,0.07 0.491,0.208c0.139,0.139 0.208,0.292 0.208,0.458c0,0.122 -0.055,0.306 -0.166,0.55Z" style="fill-rule:nonzero;"/><path d="M133.939,200.515l-11.256,24.11c-0.188,0.411 -0.433,0.616 -0.732,0.616c-0.189,0 -0.353,-0.069 -0.492,-0.208c-0.138,-0.139 -0.208,-0.292 -0.208,-0.458c0,-0.133 0.056,-0.316 0.167,-0.55l11.239,-24.11c0.122,-0.255 0.239,-0.421 0.35,-0.499c0.111,-0.078 0.244,-0.117 0.399,-0.117c0.189,0 0.353,0.07 0.491,0.208c0.139,0.139 0.209,0.292 0.209,0.458c0,0.122 -0.056,0.306 -0.167,0.55Z" style="fill-rule:nonzero;"/><path d="M174.866,200.515l-11.256,24.11c-0.188,0.411 -0.433,0.616 -0.732,0.616c-0.189,0 -0.353,-0.069 -0.492,-0.208c-0.138,-0.139 -0.208,-0.292 -0.208,-0.458c0,-0.133 0.056,-0.316 0.167,-0.55l11.239,-24.11c0.122,-0.255 0.239,-0.421 0.35,-0.499c0.111,-0.078 0.244,-0.117 0.399,-0.117c0.189,0 0.353,0.07 0.491,0.208c0.139,0.139 0.209,0.292 0.209,0.458c0,0.122 -0.056,0.306 -0.167,0.55Z" style="fill-rule:nonzero;"/><path d="M292.069,202.48l-0.016,23.327c0,0.333 -0.064,0.572 -0.192,0.716c-0.128,0.144 -0.297,0.216 -0.508,0.216c-0.2,0 -0.366,-0.072 -0.499,-0.216c-0.133,-0.144 -0.2,-0.383 -0.2,-0.716l0,-23.327c0,-0.345 0.067,-0.589 0.2,-0.733c0.133,-0.144 0.299,-0.216 0.499,-0.216c0.211,0 0.383,0.072 0.516,0.216c0.134,0.144 0.2,0.388 0.2,0.733Z" style="fill-rule:nonzero;"/><path d="M332.996,202.48l-0.016,23.327c0,0.333 -0.064,0.572 -0.192,0.716c-0.127,0.144 -0.297,0.216 -0.508,0.216c-0.199,0 -0.366,-0.072 -0.499,-0.216c-0.133,-0.144 -0.2,-0.383 -0.2,-0.716l0,-23.327c0,-0.345 0.067,-0.589 0.2,-0.733c0.133,-0.144 0.3,-0.216 0.499,-0.216c0.211,0 0.383,0.072 0.516,0.216c0.134,0.144 0.2,0.388 0.2,0.733Z" style="fill-rule:nonzero;"/><path d="M362.051,231.768l-18.598,0c-0.333,0 -0.572,-0.064 -0.716,-0.192c-0.144,-0.127 -0.217,-0.297 -0.217,-0.507c0,-0.211 0.073,-0.381 0.217,-0.508c0.144,-0.128 0.383,-0.192 0.716,-0.192l18.598,0c0.345,0 0.586,0.064 0.725,0.192c0.139,0.127 0.208,0.297 0.208,0.508c0,0.21 -0.069,0.38 -0.208,0.507c-0.139,0.128 -0.38,0.192 -0.725,0.192Z" style="fill-rule:nonzero;"/><path d="M382.515,231.768l-18.599,0c-0.333,0 -0.571,-0.064 -0.716,-0.192c-0.144,-0.127 -0.216,-0.297 -0.216,-0.507c0,-0.211 0.072,-0.381 0.216,-0.508c0.145,-0.128 0.383,-0.192 0.716,-0.192l18.599,0c0.344,0 0.586,0.064 0.724,0.192c0.139,0.127 0.208,0.297 0.208,0.508c0,0.21 -0.069,0.38 -0.208,0.507c-0.138,0.128 -0.38,0.192 -0.724,0.192Z" style="fill-rule:nonzero;"/><path d="M402.979,231.768l-18.599,0c-0.333,0 -0.572,-0.064 -0.716,-0.192c-0.144,-0.127 -0.217,-0.297 -0.217,-0.507c0,-0.211 0.073,-0.381 0.217,-0.508c0.144,-0.128 0.383,-0.192 0.716,-0.192l18.599,0c0.344,0 0.585,0.064 0.724,0.192c0.139,0.127 0.208,0.297 0.208,0.508c0,0.21 -0.069,0.38 -0.208,0.507c-0.139,0.128 -0.38,0.192 -0.724,0.192Z" style="fill-rule:nonzero;"/><path d="M423.442,231.768l-18.599,0c-0.333,0 -0.571,-0.064 -0.716,-0.192c-0.144,-0.127 -0.216,-0.297 -0.216,-0.507c0,-0.211 0.072,-0.381 0.216,-0.508c0.145,-0.128 0.383,-0.192 0.716,-0.192l18.599,0c0.344,0 0.586,0.064 0.724,0.192c0.139,0.127 0.208,0.297 0.208,0.508c0,0.21 -0.069,0.38 -0.208,0.507c-0.138,0.128 -0.38,0.192 -0.724,0.192Z" style="fill-rule:nonzero;"/><path d="M484.833,231.768l-18.599,0c-0.333,0 -0.572,-0.064 -0.716,-0.192c-0.144,-0.127 -0.216,-0.297 -0.216,-0.507c0,-0.211 0.072,-0.381 0.216,-0.508c0.144,-0.128 0.383,-0.192 0.716,-0.192l18.599,0c0.344,0 0.585,0.064 0.724,0.192c0.139,0.127 0.208,0.297 0.208,0.508c0,0.21 -0.069,0.38 -0.208,0.507c-0.139,0.128 -0.38,0.192 -0.724,0.192Z" style="fill-rule:nonzero;"/><path d="M505.296,231.768l-18.599,0c-0.333,0 -0.571,-0.064 -0.715,-0.192c-0.145,-0.127 -0.217,-0.297 -0.217,-0.507c0,-0.211 0.072,-0.381 0.217,-0.508c0.144,-0.128 0.382,-0.192 0.715,-0.192l18.599,0c0.344,0 0.586,0.064 0.724,0.192c0.139,0.127 0.209,0.297 0.209,0.508c0,0.21 -0.07,0.38 -0.209,0.507c-0.138,0.128 -0.38,0.192 -0.724,0.192Z" style="fill-rule:nonzero;"/><path d="M525.76,231.768l-18.599,0c-0.333,0 -0.572,-0.064 -0.716,-0.192c-0.144,-0.127 -0.216,-0.297 -0.216,-0.507c0,-0.211 0.072,-0.381 0.216,-0.508c0.144,-0.128 0.383,-0.192 0.716,-0.192l18.599,0c0.344,0 0.585,0.064 0.724,0.192c0.139,0.127 0.208,0.297 0.208,0.508c0,0.21 -0.069,0.38 -0.208,0.507c-0.139,0.128 -0.38,0.192 -0.724,0.192Z" style="fill-rule:nonzero;"/><path d="M546.223,231.768l-18.598,0c-0.333,0 -0.572,-0.064 -0.716,-0.192c-0.145,-0.127 -0.217,-0.297 -0.217,-0.507c0,-0.211 0.072,-0.381 0.217,-0.508c0.144,-0.128 0.383,-0.192 0.716,-0.192l18.598,0c0.344,0 0.586,0.064 0.724,0.192c0.139,0.127 0.209,0.297 0.209,0.508c0,0.21 -0.07,0.38 -0.209,0.507c-0.138,0.128 -0.38,0.192 -0.724,0.192Z" style="fill-rule:nonzero;"/><path d="M587.15,231.768l-18.598,0c-0.333,0 -0.572,-0.064 -0.716,-0.192c-0.145,-0.127 -0.217,-0.297 -0.217,-0.507c0,-0.211 0.072,-0.381 0.217,-0.508c0.144,-0.128 0.383,-0.192 0.716,-0.192l18.598,0c0.344,0 0.586,0.064 0.725,0.192c0.138,0.127 0.208,0.297 0.208,0.508c0,0.21 -0.07,0.38 -0.208,0.507c-0.139,0.128 -0.381,0.192 -0.725,0.192Z" style="fill-rule:nonzero;"/><path d="M628.077,231.768l-18.598,0c-0.333,0 -0.572,-0.064 -0.716,-0.192c-0.145,-0.127 -0.217,-0.297 -0.217,-0.507c0,-0.211 0.072,-0.381 0.217,-0.508c0.144,-0.128 0.383,-0.192 0.716,-0.192l18.598,0c0.344,0 0.586,0.064 0.725,0.192c0.138,0.127 0.208,0.297 0.208,0.508c0,0.21 -0.07,0.38 -0.208,0.507c-0.139,0.128 -0.381,0.192 -0.725,0.192Z" style="fill-rule:nonzero;"/><path d="M669.004,231.768l-18.598,0c-0.333,0 -0.572,-0.064 -0.716,-0.192c-0.145,-0.127 -0.217,-0.297 -0.217,-0.507c0,-0.211 0.072,-0.381 0.217,-0.508c0.144,-0.128 0.383,-0.192 0.716,-0.192l18.598,0c0.344,0 0.586,0.064 0.725,0.192c0.138,0.127 0.208,0.297 0.208,0.508c0,0.21 -0.07,0.38 -0.208,0.507c-0.139,0.128 -0.381,0.192 -0.725,0.192Z" style="fill-rule:nonzero;"/><path d="M689.468,231.768l-18.599,0c-0.333,0 -0.572,-0.064 -0.716,-0.192c-0.144,-0.127 -0.216,-0.297 -0.216,-0.507c0,-0.211 0.072,-0.381 0.216,-0.508c0.144,-0.128 0.383,-0.192 0.716,-0.192l18.599,0c0.344,0 0.585,0.064 0.724,0.192c0.139,0.127 0.208,0.297 0.208,0.508c0,0.21 -0.069,0.38 -0.208,0.507c-0.139,0.128 -0.38,0.192 -0.724,0.192Z" style="fill-rule:nonzero;"/><path d="M730.395,231.768l-18.599,0c-0.333,0 -0.571,-0.064 -0.716,-0.192c-0.144,-0.127 -0.216,-0.297 -0.216,-0.507c0,-0.211 0.072,-0.381 0.216,-0.508c0.145,-0.128 0.383,-0.192 0.716,-0.192l18.599,0c0.344,0 0.585,0.064 0.724,0.192c0.139,0.127 0.208,0.297 0.208,0.508c0,0.21 -0.069,0.38 -0.208,0.507c-0.139,0.128 -0.38,0.192 -0.724,0.192Z" style="fill-rule:nonzero;"/><path d="M750.858,231.768l-18.598,0c-0.333,0 -0.572,-0.064 -0.716,-0.192c-0.145,-0.127 -0.217,-0.297 -0.217,-0.507c0,-0.211 0.072,-0.381 0.217,-0.508c0.144,-0.128 0.383,-0.192 0.716,-0.192l18.598,0c0.344,0 0.586,0.064 0.725,0.192c0.138,0.127 0.208,0.297 0.208,0.508c0,0.21 -0.07,0.38 -0.208,0.507c-0.139,0.128 -0.381,0.192 -0.725,0.192Z" style="fill-rule:nonzero;"/><path d="M771.322,231.768l-18.599,0c-0.333,0 -0.571,-0.064 -0.716,-0.192c-0.144,-0.127 -0.216,-0.297 -0.216,-0.507c0,-0.211 0.072,-0.381 0.216,-0.508c0.145,-0.128 0.383,-0.192 0.716,-0.192l18.599,0c0.344,0 0.585,0.064 0.724,0.192c0.139,0.127 0.208,0.297 0.208,0.508c0,0.21 -0.069,0.38 -0.208,0.507c-0.139,0.128 -0.38,0.192 -0.724,0.192Z" style="fill-rule:nonzero;"/><path d="M832.712,231.768l-18.598,0c-0.333,0 -0.572,-0.064 -0.716,-0.192c-0.144,-0.127 -0.217,-0.297 -0.217,-0.507c0,-0.211 0.073,-0.381 0.217,-0.508c0.144,-0.128 0.383,-0.192 0.716,-0.192l18.598,0c0.345,0 0.586,0.064 0.725,0.192c0.139,0.127 0.208,0.297 0.208,0.508c0,0.21 -0.069,0.38 -0.208,0.507c-0.139,0.128 -0.38,0.192 -0.725,0.192Z" style="fill-rule:nonzero;"/><path d="M873.639,231.768l-18.598,0c-0.333,0 -0.572,-0.064 -0.716,-0.192c-0.144,-0.127 -0.217,-0.297 -0.217,-0.507c0,-0.211 0.073,-0.381 0.217,-0.508c0.144,-0.128 0.383,-0.192 0.716,-0.192l18.598,0c0.345,0 0.586,0.064 0.725,0.192c0.139,0.127 0.208,0.297 0.208,0.508c0,0.21 -0.069,0.38 -0.208,0.507c-0.139,0.128 -0.38,0.192 -0.725,0.192Z" style="fill-rule:nonzero;"/><path d="M894.103,231.768l-18.599,0c-0.333,0 -0.571,-0.064 -0.716,-0.192c-0.144,-0.127 -0.216,-0.297 -0.216,-0.507c0,-0.211 0.072,-0.381 0.216,-0.508c0.145,-0.128 0.383,-0.192 0.716,-0.192l18.599,0c0.344,0 0.586,0.064 0.724,0.192c0.139,0.127 0.208,0.297 0.208,0.508c0,0.21 -0.069,0.38 -0.208,0.507c-0.138,0.128 -0.38,0.192 -0.724,0.192Z" style="fill-rule:nonzero;"/><path d="M926.438,202.48l-0.016,23.327c0,0.333 -0.064,0.572 -0.192,0.716c-0.127,0.144 -0.297,0.216 -0.508,0.216c-0.199,0 -0.366,-0.072 -0.499,-0.216c-0.133,-0.144 -0.2,-0.383 -0.2,-0.716l0,-23.327c0,-0.345 0.067,-0.589 0.2,-0.733c0.133,-0.144 0.3,-0.216 0.499,-0.216c0.211,0 0.383,0.072 0.517,0.216c0.133,0.144 0.199,0.388 0.199,0.733Z" style="fill-rule:nonzero;"/><path d="M967.365,202.48l-0.016,23.327c0,0.333 -0.064,0.572 -0.192,0.716c-0.127,0.144 -0.297,0.216 -0.508,0.216c-0.199,0 -0.366,-0.072 -0.499,-0.216c-0.133,-0.144 -0.2,-0.383 -0.2,-0.716l0,-23.327c0,-0.345 0.067,-0.589 0.2,-0.733c0.133,-0.144 0.3,-0.216 0.499,-0.216c0.211,0 0.383,0.072 0.517,0.216c0.133,0.144 0.199,0.388 0.199,0.733Z" style="fill-rule:nonzero;"/><path d="M1016.88,231.768l-18.599,0c-0.333,0 -0.571,-0.064 -0.715,-0.192c-0.145,-0.127 -0.217,-0.297 -0.217,-0.507c0,-0.211 0.072,-0.381 0.217,-0.508c0.144,-0.128 0.382,-0.192 0.715,-0.192l18.599,0c0.344,0 0.586,0.064 0.724,0.192c0.139,0.127 0.209,0.297 0.209,0.508c0,0.21 -0.07,0.38 -0.209,0.507c-0.138,0.128 -0.38,0.192 -0.724,0.192Z" style="fill-rule:nonzero;"/><path d="M1037.35,231.768l-18.599,0c-0.333,0 -0.572,-0.064 -0.716,-0.192c-0.144,-0.127 -0.216,-0.297 -0.216,-0.507c0,-0.211 0.072,-0.381 0.216,-0.508c0.144,-0.128 0.383,-0.192 0.716,-0.192l18.599,0c0.344,0 0.585,0.064 0.724,0.192c0.139,0.127 0.208,0.297 0.208,0.508c0,0.21 -0.069,0.38 -0.208,0.507c-0.139,0.128 -0.38,0.192 -0.724,0.192Z" style="fill-rule:nonzero;"/><path d="M1057.81,231.768l-18.598,0c-0.333,0 -0.572,-0.064 -0.716,-0.192c-0.145,-0.127 -0.217,-0.297 -0.217,-0.507c0,-0.211 0.072,-0.381 0.217,-0.508c0.144,-0.128 0.383,-0.192 0.716,-0.192l18.598,0c0.344,0 0.586,0.064 0.724,0.192c0.139,0.127 0.209,0.297 0.209,0.508c0,0.21 -0.07,0.38 -0.209,0.507c-0.138,0.128 -0.38,0.192 -0.724,0.192Z" style="fill-rule:nonzero;"/><path d="M1104.9,200.015l11.239,24.11c0.111,0.245 0.167,0.422 0.167,0.533c0,0.178 -0.07,0.336 -0.209,0.475c-0.138,0.138 -0.302,0.208 -0.491,0.208c-0.311,0 -0.56,-0.206 -0.749,-0.616l-11.239,-24.127c-0.111,-0.233 -0.167,-0.411 -0.167,-0.533c0,-0.177 0.07,-0.333 0.208,-0.466c0.139,-0.133 0.303,-0.2 0.492,-0.2c0.299,0 0.549,0.206 0.749,0.616Z" style="fill-rule:nonzero;"/><path d="M1149.34,200.631l3.93,3.397l0.366,0.416c0.033,0.056 0.05,0.145 0.05,0.267c0,0.2 -0.069,0.369 -0.208,0.508c-0.139,0.138 -0.308,0.208 -0.508,0.208c-0.166,0 -0.377,-0.111 -0.633,-0.333l-3.929,-3.397c-0.278,-0.244 -0.416,-0.472 -0.416,-0.683c0,-0.199 0.069,-0.369 0.208,-0.507c0.138,-0.139 0.308,-0.209 0.508,-0.209c0.166,0 0.377,0.111 0.632,0.333Z" style="fill-rule:nonzero;"/><rect x="1164.16" y="211.787" width="14.27" height="1.998" style="fill-rule:nonzero;"/><rect x="1184.62" y="211.787" width="14.27" height="1.998" style="fill-rule:nonzero;"/><path d="M1211.93,218.414l0.599,0c0.622,0 1.154,0.219 1.598,0.658c0.445,0.438 0.667,0.968 0.667,1.59c0,0.644 -0.225,1.182 -0.675,1.615c-0.449,0.433 -0.979,0.649 -1.59,0.649l-0.599,0c-0.622,0 -1.155,-0.219 -1.599,-0.657c-0.444,-0.439 -0.666,-0.969 -0.666,-1.59c0,-0.644 0.225,-1.183 0.674,-1.615c0.45,-0.433 0.98,-0.65 1.591,-0.65Z" style="fill-rule:nonzero;"/><path d="M1262.45,231.768l-18.598,0c-0.333,0 -0.572,-0.064 -0.716,-0.192c-0.145,-0.127 -0.217,-0.297 -0.217,-0.507c0,-0.211 0.072,-0.381 0.217,-0.508c0.144,-0.128 0.383,-0.192 0.716,-0.192l18.598,0c0.344,0 0.586,0.064 0.725,0.192c0.138,0.127 0.208,0.297 0.208,0.508c0,0.21 -0.07,0.38 -0.208,0.507c-0.139,0.128 -0.381,0.192 -0.725,0.192Z" style="fill-rule:nonzero;"/><path d="M1274.32,202.48l-0.016,23.327c0,0.333 -0.064,0.572 -0.192,0.716c-0.128,0.144 -0.297,0.216 -0.508,0.216c-0.2,0 -0.366,-0.072 -0.499,-0.216c-0.133,-0.144 -0.2,-0.383 -0.2,-0.716l0,-23.327c0,-0.345 0.067,-0.589 0.2,-0.733c0.133,-0.144 0.299,-0.216 0.499,-0.216c0.211,0 0.383,0.072 0.516,0.216c0.134,0.144 0.2,0.388 0.2,0.733Z" style="fill-rule:nonzero;"/><path d="M1315.25,202.48l-0.016,23.327c0,0.333 -0.064,0.572 -0.192,0.716c-0.128,0.144 -0.297,0.216 -0.508,0.216c-0.2,0 -0.366,-0.072 -0.499,-0.216c-0.133,-0.144 -0.2,-0.383 -0.2,-0.716l0,-23.327c0,-0.345 0.067,-0.589 0.2,-0.733c0.133,-0.144 0.299,-0.216 0.499,-0.216c0.211,0 0.383,0.072 0.516,0.216c0.134,0.144 0.2,0.388 0.2,0.733Z" style="fill-rule:nonzero;"/><path d="M1344.3,231.768l-18.598,0c-0.333,0 -0.572,-0.064 -0.716,-0.192c-0.144,-0.127 -0.217,-0.297 -0.217,-0.507c0,-0.211 0.073,-0.381 0.217,-0.508c0.144,-0.128 0.383,-0.192 0.716,-0.192l18.598,0c0.345,0 0.586,0.064 0.725,0.192c0.139,0.127 0.208,0.297 0.208,0.508c0,0.21 -0.069,0.38 -0.208,0.507c-0.139,0.128 -0.38,0.192 -0.725,0.192Z" style="fill-rule:nonzero;"/><path d="M1385.23,231.768l-18.598,0c-0.333,0 -0.572,-0.064 -0.716,-0.192c-0.144,-0.127 -0.217,-0.297 -0.217,-0.507c0,-0.211 0.073,-0.381 0.217,-0.508c0.144,-0.128 0.383,-0.192 0.716,-0.192l18.598,0c0.345,0 0.586,0.064 0.725,0.192c0.139,0.127 0.208,0.297 0.208,0.508c0,0.21 -0.069,0.38 -0.208,0.507c-0.139,0.128 -0.38,0.192 -0.725,0.192Z" style="fill-rule:nonzero;"/><path d="M1405.69,231.768l-18.599,0c-0.333,0 -0.571,-0.064 -0.716,-0.192c-0.144,-0.127 -0.216,-0.297 -0.216,-0.507c0,-0.211 0.072,-0.381 0.216,-0.508c0.145,-0.128 0.383,-0.192 0.716,-0.192l18.599,0c0.344,0 0.586,0.064 0.724,0.192c0.139,0.127 0.208,0.297 0.208,0.508c0,0.21 -0.069,0.38 -0.208,0.507c-0.138,0.128 -0.38,0.192 -0.724,0.192Z" style="fill-rule:nonzero;"/><path d="M1426.15,231.768l-18.599,0c-0.333,0 -0.572,-0.064 -0.716,-0.192c-0.144,-0.127 -0.217,-0.297 -0.217,-0.507c0,-0.211 0.073,-0.381 0.217,-0.508c0.144,-0.128 0.383,-0.192 0.716,-0.192l18.599,0c0.344,0 0.585,0.064 0.724,0.192c0.139,0.127 0.208,0.297 0.208,0.508c0,0.21 -0.069,0.38 -0.208,0.507c-0.139,0.128 -0.38,0.192 -0.724,0.192Z" style="fill-rule:nonzero;"/><path d="M1555.1,200.015l11.239,24.11c0.111,0.245 0.167,0.422 0.167,0.533c0,0.178 -0.069,0.336 -0.208,0.475c-0.139,0.138 -0.303,0.208 -0.491,0.208c-0.311,0 -0.561,-0.206 -0.75,-0.616l-11.239,-24.127c-0.111,-0.233 -0.166,-0.411 -0.166,-0.533c0,-0.177 0.069,-0.333 0.208,-0.466c0.139,-0.133 0.302,-0.2 0.491,-0.2c0.3,0 0.55,0.206 0.749,0.616Z" style="fill-rule:nonzero;"/><path d="M1596.02,200.015l11.24,24.11c0.111,0.245 0.166,0.422 0.166,0.533c0,0.178 -0.069,0.336 -0.208,0.475c-0.139,0.138 -0.303,0.208 -0.491,0.208c-0.311,0 -0.561,-0.206 -0.75,-0.616l-11.239,-24.127c-0.111,-0.233 -0.166,-0.411 -0.166,-0.533c0,-0.177 0.069,-0.333 0.208,-0.466c0.139,-0.133 0.302,-0.2 0.491,-0.2c0.3,0 0.55,0.206 0.749,0.616Z" style="fill-rule:nonzero;"/><path d="M1636.95,200.015l11.24,24.11c0.111,0.245 0.166,0.422 0.166,0.533c0,0.178 -0.069,0.336 -0.208,0.475c-0.139,0.138 -0.303,0.208 -0.491,0.208c-0.311,0 -0.561,-0.206 -0.75,-0.616l-11.239,-24.127c-0.111,-0.233 -0.166,-0.411 -0.166,-0.533c0,-0.177 0.069,-0.333 0.208,-0.466c0.139,-0.133 0.302,-0.2 0.491,-0.2c0.3,0 0.55,0.206 0.749,0.616Z" style="fill-rule:nonzero;"/><path d="M57.663,258.82l15.119,-8.425c0.244,-0.133 0.427,-0.2 0.549,-0.2c0.189,0 0.352,0.069 0.491,0.208c0.139,0.139 0.208,0.303 0.208,0.491c0,0.278 -0.188,0.522 -0.566,0.733l-12.954,7.193l12.938,7.193c0.377,0.211 0.566,0.455 0.566,0.733c0,0.188 -0.07,0.352 -0.208,0.491c-0.139,0.139 -0.303,0.208 -0.492,0.208c-0.122,0 -0.305,-0.067 -0.549,-0.2l-15.102,-8.425Z" style="fill-rule:nonzero;"/><path d="M98.59,258.82l15.119,-8.425c0.244,-0.133 0.427,-0.2 0.549,-0.2c0.189,0 0.353,0.069 0.491,0.208c0.139,0.139 0.208,0.303 0.208,0.491c0,0.278 -0.188,0.522 -0.566,0.733l-12.954,7.193l12.938,7.193c0.377,0.211 0.566,0.455 0.566,0.733c0,0.188 -0.07,0.352 -0.208,0.491c-0.139,0.139 -0.303,0.208 -0.492,0.208c-0.122,0 -0.305,-0.067 -0.549,-0.2l-15.102,-8.425Z" style="fill-rule:nonzero;"/><path d="M139.517,258.82l15.119,-8.425c0.244,-0.133 0.427,-0.2 0.549,-0.2c0.189,0 0.353,0.069 0.491,0.208c0.139,0.139 0.208,0.303 0.208,0.491c0,0.278 -0.188,0.522 -0.566,0.733l-12.954,7.193l12.938,7.193c0.377,0.211 0.566,0.455 0.566,0.733c0,0.188 -0.07,0.352 -0.208,0.491c-0.139,0.139 -0.303,0.208 -0.492,0.208c-0.122,0 -0.305,-0.067 -0.549,-0.2l-15.102,-8.425Z" style="fill-rule:nonzero;"/><path d="M292.069,248.58l-0.016,23.327c0,0.333 -0.064,0.572 -0.192,0.716c-0.128,0.145 -0.297,0.217 -0.508,0.217c-0.2,0 -0.366,-0.072 -0.499,-0.217c-0.133,-0.144 -0.2,-0.383 -0.2,-0.716l0,-23.327c0,-0.344 0.067,-0.588 0.2,-0.733c0.133,-0.144 0.299,-0.216 0.499,-0.216c0.211,0 0.383,0.072 0.516,0.216c0.134,0.145 0.2,0.389 0.2,0.733Z" style="fill-rule:nonzero;"/><path d="M362.051,277.868l-18.598,0c-0.333,0 -0.572,-0.064 -0.716,-0.191c-0.144,-0.128 -0.217,-0.297 -0.217,-0.508c0,-0.211 0.073,-0.38 0.217,-0.508c0.144,-0.128 0.383,-0.191 0.716,-0.191l18.598,0c0.345,0 0.586,0.063 0.725,0.191c0.139,0.128 0.208,0.297 0.208,0.508c0,0.211 -0.069,0.38 -0.208,0.508c-0.139,0.127 -0.38,0.191 -0.725,0.191Z" style="fill-rule:nonzero;"/><path d="M382.515,277.868l-18.599,0c-0.333,0 -0.571,-0.064 -0.716,-0.191c-0.144,-0.128 -0.216,-0.297 -0.216,-0.508c0,-0.211 0.072,-0.38 0.216,-0.508c0.145,-0.128 0.383,-0.191 0.716,-0.191l18.599,0c0.344,0 0.586,0.063 0.724,0.191c0.139,0.128 0.208,0.297 0.208,0.508c0,0.211 -0.069,0.38 -0.208,0.508c-0.138,0.127 -0.38,0.191 -0.724,0.191Z" style="fill-rule:nonzero;"/><path d="M388.676,246.116l11.239,24.11c0.111,0.244 0.166,0.421 0.166,0.532c0,0.178 -0.069,0.336 -0.208,0.475c-0.139,0.139 -0.302,0.208 -0.491,0.208c-0.311,0 -0.561,-0.205 -0.749,-0.616l-11.239,-24.127c-0.111,-0.233 -0.167,-0.41 -0.167,-0.532c0,-0.178 0.07,-0.333 0.208,-0.467c0.139,-0.133 0.303,-0.199 0.491,-0.199c0.3,0 0.55,0.205 0.75,0.616Z" style="fill-rule:nonzero;"/><path d="M429.603,246.116l11.239,24.11c0.111,0.244 0.166,0.421 0.166,0.532c0,0.178 -0.069,0.336 -0.208,0.475c-0.139,0.139 -0.302,0.208 -0.491,0.208c-0.311,0 -0.561,-0.205 -0.749,-0.616l-11.239,-24.127c-0.111,-0.233 -0.167,-0.41 -0.167,-0.532c0,-0.178 0.07,-0.333 0.208,-0.467c0.139,-0.133 0.303,-0.199 0.491,-0.199c0.3,0 0.55,0.205 0.75,0.616Z" style="fill-rule:nonzero;"/><path d="M461.355,246.615l-11.255,24.11c-0.189,0.411 -0.433,0.616 -0.733,0.616c-0.189,0 -0.352,-0.069 -0.491,-0.208c-0.139,-0.139 -0.208,-0.291 -0.208,-0.458c0,-0.133 0.055,-0.316 0.166,-0.549l11.239,-24.11c0.122,-0.256 0.239,-0.422 0.35,-0.5c0.111,-0.077 0.244,-0.116 0.4,-0.116c0.188,0 0.352,0.069 0.491,0.208c0.138,0.139 0.208,0.291 0.208,0.458c0,0.122 -0.056,0.305 -0.167,0.549Z" style="fill-rule:nonzero;"/><path d="M502.282,246.615l-11.255,24.11c-0.189,0.411 -0.433,0.616 -0.733,0.616c-0.189,0 -0.352,-0.069 -0.491,-0.208c-0.139,-0.139 -0.208,-0.291 -0.208,-0.458c0,-0.133 0.055,-0.316 0.166,-0.549l11.239,-24.11c0.122,-0.256 0.239,-0.422 0.35,-0.5c0.111,-0.077 0.244,-0.116 0.4,-0.116c0.188,0 0.352,0.069 0.491,0.208c0.139,0.139 0.208,0.291 0.208,0.458c0,0.122 -0.056,0.305 -0.167,0.549Z" style="fill-rule:nonzero;"/><path d="M546.223,277.868l-18.598,0c-0.333,0 -0.572,-0.064 -0.716,-0.191c-0.145,-0.128 -0.217,-0.297 -0.217,-0.508c0,-0.211 0.072,-0.38 0.217,-0.508c0.144,-0.128 0.383,-0.191 0.716,-0.191l18.598,0c0.344,0 0.586,0.063 0.724,0.191c0.139,0.128 0.209,0.297 0.209,0.508c0,0.211 -0.07,0.38 -0.209,0.508c-0.138,0.127 -0.38,0.191 -0.724,0.191Z" style="fill-rule:nonzero;"/><path d="M555.897,246.732l3.93,3.396l0.366,0.417c0.033,0.055 0.05,0.144 0.05,0.266c0,0.2 -0.069,0.369 -0.208,0.508c-0.139,0.139 -0.308,0.208 -0.508,0.208c-0.167,0 -0.377,-0.111 -0.633,-0.333l-3.929,-3.397c-0.278,-0.244 -0.417,-0.471 -0.417,-0.682c0,-0.2 0.07,-0.369 0.209,-0.508c0.138,-0.139 0.308,-0.208 0.507,-0.208c0.167,0 0.378,0.111 0.633,0.333Z" style="fill-rule:nonzero;"/><path d="M599.022,248.58l-0.017,23.327c0,0.333 -0.063,0.572 -0.191,0.716c-0.128,0.145 -0.297,0.217 -0.508,0.217c-0.2,0 -0.366,-0.072 -0.499,-0.217c-0.134,-0.144 -0.2,-0.383 -0.2,-0.716l0,-23.327c0,-0.344 0.066,-0.588 0.2,-0.733c0.133,-0.144 0.299,-0.216 0.499,-0.216c0.211,0 0.383,0.072 0.516,0.216c0.133,0.145 0.2,0.389 0.2,0.733Z" style="fill-rule:nonzero;"/><path d="M637.019,247.631l4.429,0l-1.166,8.741c-0.066,0.467 -0.191,0.791 -0.375,0.974c-0.183,0.184 -0.407,0.275 -0.674,0.275c-0.277,0 -0.505,-0.091 -0.683,-0.275c-0.177,-0.183 -0.299,-0.507 -0.366,-0.974l-1.165,-8.741Z" style="fill-rule:nonzero;"/><path d="M669.004,277.868l-18.598,0c-0.333,0 -0.572,-0.064 -0.716,-0.191c-0.145,-0.128 -0.217,-0.297 -0.217,-0.508c0,-0.211 0.072,-0.38 0.217,-0.508c0.144,-0.128 0.383,-0.191 0.716,-0.191l18.598,0c0.344,0 0.586,0.063 0.725,0.191c0.138,0.128 0.208,0.297 0.208,0.508c0,0.211 -0.07,0.38 -0.208,0.508c-0.139,0.127 -0.381,0.191 -0.725,0.191Z" style="fill-rule:nonzero;"/><path d="M699.142,246.732l3.929,3.396l0.367,0.417c0.033,0.055 0.05,0.144 0.05,0.266c0,0.2 -0.07,0.369 -0.209,0.508c-0.138,0.139 -0.308,0.208 -0.507,0.208c-0.167,0 -0.378,-0.111 -0.633,-0.333l-3.93,-3.397c-0.277,-0.244 -0.416,-0.471 -0.416,-0.682c0,-0.2 0.069,-0.369 0.208,-0.508c0.139,-0.139 0.308,-0.208 0.508,-0.208c0.167,0 0.377,0.111 0.633,0.333Z" style="fill-rule:nonzero;"/><path d="M750.858,277.868l-18.598,0c-0.333,0 -0.572,-0.064 -0.716,-0.191c-0.145,-0.128 -0.217,-0.297 -0.217,-0.508c0,-0.211 0.072,-0.38 0.217,-0.508c0.144,-0.128 0.383,-0.191 0.716,-0.191l18.598,0c0.344,0 0.586,0.063 0.725,0.191c0.138,0.128 0.208,0.297 0.208,0.508c0,0.211 -0.07,0.38 -0.208,0.508c-0.139,0.127 -0.381,0.191 -0.725,0.191Z" style="fill-rule:nonzero;"/><path d="M777.483,246.116l11.239,24.11c0.111,0.244 0.166,0.421 0.166,0.532c0,0.178 -0.069,0.336 -0.208,0.475c-0.139,0.139 -0.302,0.208 -0.491,0.208c-0.311,0 -0.561,-0.205 -0.749,-0.616l-11.239,-24.127c-0.111,-0.233 -0.167,-0.41 -0.167,-0.532c0,-0.178 0.069,-0.333 0.208,-0.467c0.139,-0.133 0.303,-0.199 0.491,-0.199c0.3,0 0.55,0.205 0.75,0.616Z" style="fill-rule:nonzero;"/><path d="M803.657,248.58l-0.016,23.327c0,0.333 -0.064,0.572 -0.192,0.716c-0.128,0.145 -0.297,0.217 -0.508,0.217c-0.2,0 -0.366,-0.072 -0.499,-0.217c-0.133,-0.144 -0.2,-0.383 -0.2,-0.716l0,-23.327c0,-0.344 0.067,-0.588 0.2,-0.733c0.133,-0.144 0.299,-0.216 0.499,-0.216c0.211,0 0.383,0.072 0.516,0.216c0.134,0.145 0.2,0.389 0.2,0.733Z" style="fill-rule:nonzero;"/><path d="M841.654,247.631l4.429,0l-1.166,8.741c-0.066,0.467 -0.191,0.791 -0.374,0.974c-0.183,0.184 -0.408,0.275 -0.675,0.275c-0.277,0 -0.505,-0.091 -0.682,-0.275c-0.178,-0.183 -0.3,-0.507 -0.367,-0.974l-1.165,-8.741Z" style="fill-rule:nonzero;"/><path d="M873.639,277.868l-18.598,0c-0.333,0 -0.572,-0.064 -0.716,-0.191c-0.144,-0.128 -0.217,-0.297 -0.217,-0.508c0,-0.211 0.073,-0.38 0.217,-0.508c0.144,-0.128 0.383,-0.191 0.716,-0.191l18.598,0c0.345,0 0.586,0.063 0.725,0.191c0.139,0.128 0.208,0.297 0.208,0.508c0,0.211 -0.069,0.38 -0.208,0.508c-0.139,0.127 -0.38,0.191 -0.725,0.191Z" style="fill-rule:nonzero;"/><path d="M900.264,246.116l11.239,24.11c0.111,0.244 0.166,0.421 0.166,0.532c0,0.178 -0.069,0.336 -0.208,0.475c-0.139,0.139 -0.302,0.208 -0.491,0.208c-0.311,0 -0.561,-0.205 -0.749,-0.616l-11.239,-24.127c-0.111,-0.233 -0.167,-0.41 -0.167,-0.532c0,-0.178 0.069,-0.333 0.208,-0.467c0.139,-0.133 0.303,-0.199 0.491,-0.199c0.3,0 0.55,0.205 0.75,0.616Z" style="fill-rule:nonzero;"/><path d="M926.438,248.58l-0.016,23.327c0,0.333 -0.064,0.572 -0.192,0.716c-0.127,0.145 -0.297,0.217 -0.508,0.217c-0.199,0 -0.366,-0.072 -0.499,-0.217c-0.133,-0.144 -0.2,-0.383 -0.2,-0.716l0,-23.327c0,-0.344 0.067,-0.588 0.2,-0.733c0.133,-0.144 0.3,-0.216 0.499,-0.216c0.211,0 0.383,0.072 0.517,0.216c0.133,0.145 0.199,0.389 0.199,0.733Z" style="fill-rule:nonzero;"/><path d="M967.365,248.58l-0.016,23.327c0,0.333 -0.064,0.572 -0.192,0.716c-0.127,0.145 -0.297,0.217 -0.508,0.217c-0.199,0 -0.366,-0.072 -0.499,-0.217c-0.133,-0.144 -0.2,-0.383 -0.2,-0.716l0,-23.327c0,-0.344 0.067,-0.588 0.2,-0.733c0.133,-0.144 0.3,-0.216 0.499,-0.216c0.211,0 0.383,0.072 0.517,0.216c0.133,0.145 0.199,0.389 0.199,0.733Z" style="fill-rule:nonzero;"/><path d="M993.407,246.615l-11.256,24.11c-0.189,0.411 -0.433,0.616 -0.733,0.616c-0.188,0 -0.352,-0.069 -0.491,-0.208c-0.138,-0.139 -0.208,-0.291 -0.208,-0.458c0,-0.133 0.056,-0.316 0.167,-0.549l11.239,-24.11c0.122,-0.256 0.238,-0.422 0.349,-0.5c0.111,-0.077 0.245,-0.116 0.4,-0.116c0.189,0 0.352,0.069 0.491,0.208c0.139,0.139 0.208,0.291 0.208,0.458c0,0.122 -0.055,0.305 -0.166,0.549Z" style="fill-rule:nonzero;"/><path d="M1037.35,277.868l-18.599,0c-0.333,0 -0.572,-0.064 -0.716,-0.191c-0.144,-0.128 -0.216,-0.297 -0.216,-0.508c0,-0.211 0.072,-0.38 0.216,-0.508c0.144,-0.128 0.383,-0.191 0.716,-0.191l18.599,0c0.344,0 0.585,0.063 0.724,0.191c0.139,0.128 0.208,0.297 0.208,0.508c0,0.211 -0.069,0.38 -0.208,0.508c-0.139,0.127 -0.38,0.191 -0.724,0.191Z" style="fill-rule:nonzero;"/><path d="M1063.97,246.116l11.239,24.11c0.111,0.244 0.167,0.421 0.167,0.532c0,0.178 -0.07,0.336 -0.209,0.475c-0.138,0.139 -0.302,0.208 -0.491,0.208c-0.311,0 -0.56,-0.205 -0.749,-0.616l-11.239,-24.127c-0.111,-0.233 -0.167,-0.41 -0.167,-0.532c0,-0.178 0.07,-0.333 0.208,-0.467c0.139,-0.133 0.303,-0.199 0.492,-0.199c0.299,0 0.549,0.205 0.749,0.616Z" style="fill-rule:nonzero;"/><path d="M1128.88,246.732l3.929,3.396l0.367,0.417c0.033,0.055 0.049,0.144 0.049,0.266c0,0.2 -0.069,0.369 -0.208,0.508c-0.138,0.139 -0.308,0.208 -0.507,0.208c-0.167,0 -0.378,-0.111 -0.633,-0.333l-3.93,-3.397c-0.277,-0.244 -0.416,-0.471 -0.416,-0.682c0,-0.2 0.069,-0.369 0.208,-0.508c0.139,-0.139 0.308,-0.208 0.508,-0.208c0.166,0 0.377,0.111 0.633,0.333Z" style="fill-rule:nonzero;"/><rect x="1143.69" y="257.888" width="14.27" height="1.998" style="fill-rule:nonzero;"/><rect x="1164.16" y="257.888" width="14.27" height="1.998" style="fill-rule:nonzero;"/><path d="M1191.46,264.514l0.6,0c0.621,0 1.154,0.22 1.598,0.658c0.444,0.439 0.666,0.969 0.666,1.59c0,0.644 -0.225,1.183 -0.674,1.615c-0.45,0.433 -0.98,0.65 -1.59,0.65l-0.6,0c-0.622,0 -1.154,-0.219 -1.598,-0.658c-0.444,-0.438 -0.666,-0.968 -0.666,-1.59c0,-0.644 0.224,-1.182 0.674,-1.615c0.45,-0.433 0.98,-0.65 1.59,-0.65Z" style="fill-rule:nonzero;"/><path d="M1227.68,246.116l11.239,24.11c0.111,0.244 0.167,0.421 0.167,0.532c0,0.178 -0.07,0.336 -0.208,0.475c-0.139,0.139 -0.303,0.208 -0.492,0.208c-0.31,0 -0.56,-0.205 -0.749,-0.616l-11.239,-24.127c-0.111,-0.233 -0.167,-0.41 -0.167,-0.532c0,-0.178 0.07,-0.333 0.209,-0.467c0.138,-0.133 0.302,-0.199 0.491,-0.199c0.299,0 0.549,0.205 0.749,0.616Z" style="fill-rule:nonzero;"/><path d="M1274.32,248.58l-0.016,23.327c0,0.333 -0.064,0.572 -0.192,0.716c-0.128,0.145 -0.297,0.217 -0.508,0.217c-0.2,0 -0.366,-0.072 -0.499,-0.217c-0.133,-0.144 -0.2,-0.383 -0.2,-0.716l0,-23.327c0,-0.344 0.067,-0.588 0.2,-0.733c0.133,-0.144 0.299,-0.216 0.499,-0.216c0.211,0 0.383,0.072 0.516,0.216c0.134,0.145 0.2,0.389 0.2,0.733Z" style="fill-rule:nonzero;"/><path d="M1323.84,277.868l-18.599,0c-0.333,0 -0.571,-0.064 -0.716,-0.191c-0.144,-0.128 -0.216,-0.297 -0.216,-0.508c0,-0.211 0.072,-0.38 0.216,-0.508c0.145,-0.128 0.383,-0.191 0.716,-0.191l18.599,0c0.344,0 0.585,0.063 0.724,0.191c0.139,0.128 0.208,0.297 0.208,0.508c0,0.211 -0.069,0.38 -0.208,0.508c-0.139,0.127 -0.38,0.191 -0.724,0.191Z" style="fill-rule:nonzero;"/><path d="M1344.3,277.868l-18.598,0c-0.333,0 -0.572,-0.064 -0.716,-0.191c-0.144,-0.128 -0.217,-0.297 -0.217,-0.508c0,-0.211 0.073,-0.38 0.217,-0.508c0.144,-0.128 0.383,-0.191 0.716,-0.191l18.598,0c0.345,0 0.586,0.063 0.725,0.191c0.139,0.128 0.208,0.297 0.208,0.508c0,0.211 -0.069,0.38 -0.208,0.508c-0.139,0.127 -0.38,0.191 -0.725,0.191Z" style="fill-rule:nonzero;"/><path d="M1361.75,246.615l-11.256,24.11c-0.188,0.411 -0.432,0.616 -0.732,0.616c-0.189,0 -0.353,-0.069 -0.491,-0.208c-0.139,-0.139 -0.208,-0.291 -0.208,-0.458c0,-0.133 0.055,-0.316 0.166,-0.549l11.239,-24.11c0.122,-0.256 0.239,-0.422 0.35,-0.5c0.111,-0.077 0.244,-0.116 0.399,-0.116c0.189,0 0.353,0.069 0.492,0.208c0.138,0.139 0.208,0.291 0.208,0.458c0,0.122 -0.056,0.305 -0.167,0.549Z" style="fill-rule:nonzero;"/><path d="M1405.69,277.868l-18.599,0c-0.333,0 -0.571,-0.064 -0.716,-0.191c-0.144,-0.128 -0.216,-0.297 -0.216,-0.508c0,-0.211 0.072,-0.38 0.216,-0.508c0.145,-0.128 0.383,-0.191 0.716,-0.191l18.599,0c0.344,0 0.586,0.063 0.724,0.191c0.139,0.128 0.208,0.297 0.208,0.508c0,0.211 -0.069,0.38 -0.208,0.508c-0.138,0.127 -0.38,0.191 -0.724,0.191Z" style="fill-rule:nonzero;"/><path d="M1432.32,246.116l11.239,24.11c0.111,0.244 0.167,0.421 0.167,0.532c0,0.178 -0.07,0.336 -0.208,0.475c-0.139,0.139 -0.303,0.208 -0.491,0.208c-0.311,0 -0.561,-0.205 -0.75,-0.616l-11.239,-24.127c-0.111,-0.233 -0.166,-0.41 -0.166,-0.532c0,-0.178 0.069,-0.333 0.208,-0.467c0.139,-0.133 0.302,-0.199 0.491,-0.199c0.3,0 0.549,0.205 0.749,0.616Z" style="fill-rule:nonzero;"/><path d="M1589.16,258.82l-15.118,8.425c-0.245,0.133 -0.428,0.2 -0.55,0.2c-0.188,0 -0.352,-0.069 -0.491,-0.208c-0.139,-0.139 -0.208,-0.303 -0.208,-0.491c0,-0.278 0.189,-0.522 0.566,-0.733l12.954,-7.193l-12.937,-7.193c-0.378,-0.211 -0.566,-0.455 -0.566,-0.733c0,-0.188 0.069,-0.352 0.208,-0.491c0.138,-0.139 0.302,-0.208 0.491,-0.208c0.122,0 0.305,0.067 0.549,0.2l15.102,8.425Z" style="fill-rule:nonzero;"/><path d="M1630.09,258.82l-15.118,8.425c-0.244,0.133 -0.428,0.2 -0.55,0.2c-0.188,0 -0.352,-0.069 -0.491,-0.208c-0.139,-0.139 -0.208,-0.303 -0.208,-0.491c0,-0.278 0.189,-0.522 0.566,-0.733l12.954,-7.193l-12.937,-7.193c-0.378,-0.211 -0.566,-0.455 -0.566,-0.733c0,-0.188 0.069,-0.352 0.208,-0.491c0.138,-0.139 0.302,-0.208 0.491,-0.208c0.122,0 0.305,0.067 0.549,0.2l15.102,8.425Z" style="fill-rule:nonzero;"/><path d="M1671.02,258.82l-15.118,8.425c-0.244,0.133 -0.428,0.2 -0.55,0.2c-0.188,0 -0.352,-0.069 -0.491,-0.208c-0.139,-0.139 -0.208,-0.303 -0.208,-0.491c0,-0.278 0.189,-0.522 0.566,-0.733l12.954,-7.193l-12.937,-7.193c-0.378,-0.211 -0.566,-0.455 -0.566,-0.733c0,-0.188 0.069,-0.352 0.208,-0.491c0.139,-0.139 0.302,-0.208 0.491,-0.208c0.122,0 0.305,0.067 0.549,0.2l15.102,8.425Z" style="fill-rule:nonzero;"/><path d="M81.723,292.216l11.239,24.11c0.111,0.244 0.167,0.422 0.167,0.533c0,0.177 -0.07,0.336 -0.209,0.474c-0.138,0.139 -0.302,0.208 -0.491,0.208c-0.311,0 -0.56,-0.205 -0.749,-0.616l-11.239,-24.126c-0.111,-0.233 -0.167,-0.411 -0.167,-0.533c0,-0.178 0.07,-0.333 0.208,-0.466c0.139,-0.134 0.303,-0.2 0.492,-0.2c0.299,0 0.549,0.205 0.749,0.616Z" style="fill-rule:nonzero;"/><path d="M122.65,292.216l11.239,24.11c0.111,0.244 0.167,0.422 0.167,0.533c0,0.177 -0.07,0.336 -0.209,0.474c-0.138,0.139 -0.302,0.208 -0.491,0.208c-0.311,0 -0.56,-0.205 -0.749,-0.616l-11.239,-24.126c-0.111,-0.233 -0.167,-0.411 -0.167,-0.533c0,-0.178 0.07,-0.333 0.208,-0.466c0.139,-0.134 0.303,-0.2 0.492,-0.2c0.299,0 0.549,0.205 0.749,0.616Z" style="fill-rule:nonzero;"/><path d="M163.577,292.216l11.239,24.11c0.111,0.244 0.167,0.422 0.167,0.533c0,0.177 -0.07,0.336 -0.209,0.474c-0.138,0.139 -0.302,0.208 -0.491,0.208c-0.311,0 -0.56,-0.205 -0.749,-0.616l-11.239,-24.126c-0.111,-0.233 -0.167,-0.411 -0.167,-0.533c0,-0.178 0.07,-0.333 0.209,-0.466c0.138,-0.134 0.302,-0.2 0.491,-0.2c0.299,0 0.549,0.205 0.749,0.616Z" style="fill-rule:nonzero;"/><path d="M292.069,294.68l-0.016,23.328c0,0.333 -0.064,0.571 -0.192,0.716c-0.128,0.144 -0.297,0.216 -0.508,0.216c-0.2,0 -0.366,-0.072 -0.499,-0.216c-0.133,-0.145 -0.2,-0.383 -0.2,-0.716l0,-23.328c0,-0.344 0.067,-0.588 0.2,-0.732c0.133,-0.145 0.299,-0.217 0.499,-0.217c0.211,0 0.383,0.072 0.516,0.217c0.134,0.144 0.2,0.388 0.2,0.732Z" style="fill-rule:nonzero;"/><path d="M332.996,294.68l-0.016,23.328c0,0.333 -0.064,0.571 -0.192,0.716c-0.127,0.144 -0.297,0.216 -0.508,0.216c-0.199,0 -0.366,-0.072 -0.499,-0.216c-0.133,-0.145 -0.2,-0.383 -0.2,-0.716l0,-23.328c0,-0.344 0.067,-0.588 0.2,-0.732c0.133,-0.145 0.3,-0.217 0.499,-0.217c0.211,0 0.383,0.072 0.516,0.217c0.134,0.144 0.2,0.388 0.2,0.732Z" style="fill-rule:nonzero;"/><path d="M362.051,323.969l-18.598,0c-0.333,0 -0.572,-0.064 -0.716,-0.192c-0.144,-0.128 -0.217,-0.297 -0.217,-0.508c0,-0.211 0.073,-0.38 0.217,-0.508c0.144,-0.127 0.383,-0.191 0.716,-0.191l18.598,0c0.345,0 0.586,0.064 0.725,0.191c0.139,0.128 0.208,0.297 0.208,0.508c0,0.211 -0.069,0.38 -0.208,0.508c-0.139,0.128 -0.38,0.192 -0.725,0.192Z" style="fill-rule:nonzero;"/><path d="M382.515,323.969l-18.599,0c-0.333,0 -0.571,-0.064 -0.716,-0.192c-0.144,-0.128 -0.216,-0.297 -0.216,-0.508c0,-0.211 0.072,-0.38 0.216,-0.508c0.145,-0.127 0.383,-0.191 0.716,-0.191l18.599,0c0.344,0 0.586,0.064 0.724,0.191c0.139,0.128 0.208,0.297 0.208,0.508c0,0.211 -0.069,0.38 -0.208,0.508c-0.138,0.128 -0.38,0.192 -0.724,0.192Z" style="fill-rule:nonzero;"/><path d="M402.979,323.969l-18.599,0c-0.333,0 -0.572,-0.064 -0.716,-0.192c-0.144,-0.128 -0.217,-0.297 -0.217,-0.508c0,-0.211 0.073,-0.38 0.217,-0.508c0.144,-0.127 0.383,-0.191 0.716,-0.191l18.599,0c0.344,0 0.585,0.064 0.724,0.191c0.139,0.128 0.208,0.297 0.208,0.508c0,0.211 -0.069,0.38 -0.208,0.508c-0.139,0.128 -0.38,0.192 -0.724,0.192Z" style="fill-rule:nonzero;"/><path d="M422.743,304.92l-15.119,8.425c-0.244,0.134 -0.427,0.2 -0.549,0.2c-0.189,0 -0.353,-0.069 -0.492,-0.208c-0.138,-0.139 -0.208,-0.302 -0.208,-0.491c0,-0.278 0.189,-0.522 0.566,-0.733l12.954,-7.193l-12.937,-7.193c-0.377,-0.211 -0.566,-0.455 -0.566,-0.732c0,-0.189 0.069,-0.353 0.208,-0.492c0.139,-0.138 0.303,-0.208 0.491,-0.208c0.122,0 0.305,0.067 0.55,0.2l15.102,8.425Z" style="fill-rule:nonzero;"/><path d="M466.933,304.92l15.119,-8.425c0.244,-0.133 0.427,-0.2 0.549,-0.2c0.189,0 0.353,0.07 0.492,0.208c0.138,0.139 0.208,0.303 0.208,0.492c0,0.277 -0.189,0.521 -0.566,0.732l-12.954,7.193l12.937,7.193c0.377,0.211 0.566,0.455 0.566,0.733c0,0.189 -0.069,0.352 -0.208,0.491c-0.139,0.139 -0.302,0.208 -0.491,0.208c-0.122,0 -0.305,-0.066 -0.55,-0.2l-15.102,-8.425Z" style="fill-rule:nonzero;"/><path d="M516.302,306.336c0,-1.277 0.167,-2.631 0.5,-4.063c0.333,-1.432 0.971,-3.086 1.914,-4.962c0.944,-1.876 1.632,-3.008 2.065,-3.397c0.133,-0.122 0.278,-0.183 0.433,-0.183c0.2,0 0.369,0.067 0.508,0.2c0.139,0.133 0.208,0.294 0.208,0.483c0,0.111 -0.039,0.233 -0.117,0.366c-1.221,2.242 -2.092,4.274 -2.614,6.094c-0.521,1.821 -0.782,3.641 -0.782,5.462c0,1.831 0.261,3.657 0.782,5.478c0.522,1.82 1.393,3.846 2.614,6.077c0.078,0.133 0.117,0.255 0.117,0.366c0,0.189 -0.069,0.353 -0.208,0.492c-0.139,0.138 -0.308,0.208 -0.508,0.208c-0.155,0 -0.3,-0.061 -0.433,-0.183c-0.411,-0.378 -1.082,-1.482 -2.015,-3.314c-0.932,-1.831 -1.576,-3.452 -1.931,-4.862c-0.355,-1.41 -0.533,-2.83 -0.533,-4.262Z" style="fill-rule:nonzero;"/><path d="M546.223,323.969l-18.598,0c-0.333,0 -0.572,-0.064 -0.716,-0.192c-0.145,-0.128 -0.217,-0.297 -0.217,-0.508c0,-0.211 0.072,-0.38 0.217,-0.508c0.144,-0.127 0.383,-0.191 0.716,-0.191l18.598,0c0.344,0 0.586,0.064 0.724,0.191c0.139,0.128 0.209,0.297 0.209,0.508c0,0.211 -0.07,0.38 -0.209,0.508c-0.138,0.128 -0.38,0.192 -0.724,0.192Z" style="fill-rule:nonzero;"/><path d="M558.095,294.68l-0.017,23.328c0,0.333 -0.063,0.571 -0.191,0.716c-0.128,0.144 -0.297,0.216 -0.508,0.216c-0.2,0 -0.366,-0.072 -0.499,-0.216c-0.134,-0.145 -0.2,-0.383 -0.2,-0.716l0,-23.328c0,-0.344 0.066,-0.588 0.2,-0.732c0.133,-0.145 0.299,-0.217 0.499,-0.217c0.211,0 0.383,0.072 0.516,0.217c0.133,0.144 0.2,0.388 0.2,0.732Z" style="fill-rule:nonzero;"/><path d="M599.022,294.68l-0.017,23.328c0,0.333 -0.063,0.571 -0.191,0.716c-0.128,0.144 -0.297,0.216 -0.508,0.216c-0.2,0 -0.366,-0.072 -0.499,-0.216c-0.134,-0.145 -0.2,-0.383 -0.2,-0.716l0,-23.328c0,-0.344 0.066,-0.588 0.2,-0.732c0.133,-0.145 0.299,-0.217 0.499,-0.217c0.211,0 0.383,0.072 0.516,0.217c0.133,0.144 0.2,0.388 0.2,0.732Z" style="fill-rule:nonzero;"/><path d="M639.949,294.68l-0.017,23.328c0,0.333 -0.063,0.571 -0.191,0.716c-0.128,0.144 -0.297,0.216 -0.508,0.216c-0.2,0 -0.366,-0.072 -0.499,-0.216c-0.134,-0.145 -0.2,-0.383 -0.2,-0.716l0,-23.328c0,-0.344 0.066,-0.588 0.2,-0.732c0.133,-0.145 0.299,-0.217 0.499,-0.217c0.211,0 0.383,0.072 0.516,0.217c0.133,0.144 0.2,0.388 0.2,0.732Z" style="fill-rule:nonzero;"/><path d="M680.876,294.68l-0.017,23.328c0,0.333 -0.063,0.571 -0.191,0.716c-0.128,0.144 -0.297,0.216 -0.508,0.216c-0.2,0 -0.366,-0.072 -0.499,-0.216c-0.134,-0.145 -0.2,-0.383 -0.2,-0.716l0,-23.328c0,-0.344 0.066,-0.588 0.2,-0.732c0.133,-0.145 0.299,-0.217 0.499,-0.217c0.211,0 0.383,0.072 0.516,0.217c0.134,0.144 0.2,0.388 0.2,0.732Z" style="fill-rule:nonzero;"/><path d="M721.803,294.68l-0.016,23.328c0,0.333 -0.064,0.571 -0.192,0.716c-0.128,0.144 -0.297,0.216 -0.508,0.216c-0.2,0 -0.366,-0.072 -0.499,-0.216c-0.134,-0.145 -0.2,-0.383 -0.2,-0.716l0,-23.328c0,-0.344 0.066,-0.588 0.2,-0.732c0.133,-0.145 0.299,-0.217 0.499,-0.217c0.211,0 0.383,0.072 0.516,0.217c0.134,0.144 0.2,0.388 0.2,0.732Z" style="fill-rule:nonzero;"/><path d="M762.73,294.68l-0.016,23.328c0,0.333 -0.064,0.571 -0.192,0.716c-0.128,0.144 -0.297,0.216 -0.508,0.216c-0.2,0 -0.366,-0.072 -0.499,-0.216c-0.133,-0.145 -0.2,-0.383 -0.2,-0.716l0,-23.328c0,-0.344 0.067,-0.588 0.2,-0.732c0.133,-0.145 0.299,-0.217 0.499,-0.217c0.211,0 0.383,0.072 0.516,0.217c0.134,0.144 0.2,0.388 0.2,0.732Z" style="fill-rule:nonzero;"/><path d="M803.657,294.68l-0.016,23.328c0,0.333 -0.064,0.571 -0.192,0.716c-0.128,0.144 -0.297,0.216 -0.508,0.216c-0.2,0 -0.366,-0.072 -0.499,-0.216c-0.133,-0.145 -0.2,-0.383 -0.2,-0.716l0,-23.328c0,-0.344 0.067,-0.588 0.2,-0.732c0.133,-0.145 0.299,-0.217 0.499,-0.217c0.211,0 0.383,0.072 0.516,0.217c0.134,0.144 0.2,0.388 0.2,0.732Z" style="fill-rule:nonzero;"/><path d="M844.584,294.68l-0.016,23.328c0,0.333 -0.064,0.571 -0.192,0.716c-0.127,0.144 -0.297,0.216 -0.508,0.216c-0.199,0 -0.366,-0.072 -0.499,-0.216c-0.133,-0.145 -0.2,-0.383 -0.2,-0.716l0,-23.328c0,-0.344 0.067,-0.588 0.2,-0.732c0.133,-0.145 0.3,-0.217 0.499,-0.217c0.211,0 0.383,0.072 0.516,0.217c0.134,0.144 0.2,0.388 0.2,0.732Z" style="fill-rule:nonzero;"/><path d="M873.639,323.969l-18.598,0c-0.333,0 -0.572,-0.064 -0.716,-0.192c-0.144,-0.128 -0.217,-0.297 -0.217,-0.508c0,-0.211 0.073,-0.38 0.217,-0.508c0.144,-0.127 0.383,-0.191 0.716,-0.191l18.598,0c0.345,0 0.586,0.064 0.725,0.191c0.139,0.128 0.208,0.297 0.208,0.508c0,0.211 -0.069,0.38 -0.208,0.508c-0.139,0.128 -0.38,0.192 -0.725,0.192Z" style="fill-rule:nonzero;"/><path d="M885.212,306.352c0,1.277 -0.167,2.628 -0.5,4.055c-0.333,1.426 -0.971,3.08 -1.915,4.962c-0.943,1.881 -1.631,3.011 -2.064,3.388c-0.134,0.133 -0.278,0.2 -0.433,0.2c-0.2,0 -0.369,-0.07 -0.508,-0.208c-0.139,-0.139 -0.208,-0.303 -0.208,-0.492c0,-0.111 0.039,-0.233 0.116,-0.366c1.221,-2.231 2.093,-4.257 2.614,-6.077c0.522,-1.821 0.783,-3.641 0.783,-5.462c0,-1.831 -0.261,-3.657 -0.783,-5.478c-0.521,-1.82 -1.393,-3.852 -2.614,-6.094c-0.077,-0.133 -0.116,-0.255 -0.116,-0.366c0,-0.189 0.069,-0.35 0.208,-0.483c0.139,-0.133 0.308,-0.2 0.508,-0.2c0.155,0 0.299,0.061 0.433,0.183c0.41,0.378 1.082,1.482 2.014,3.314c0.933,1.831 1.577,3.452 1.932,4.862c0.355,1.409 0.533,2.83 0.533,4.262Z" style="fill-rule:nonzero;"/><path d="M926.438,294.68l-0.016,23.328c0,0.333 -0.064,0.571 -0.192,0.716c-0.127,0.144 -0.297,0.216 -0.508,0.216c-0.199,0 -0.366,-0.072 -0.499,-0.216c-0.133,-0.145 -0.2,-0.383 -0.2,-0.716l0,-23.328c0,-0.344 0.067,-0.588 0.2,-0.732c0.133,-0.145 0.3,-0.217 0.499,-0.217c0.211,0 0.383,0.072 0.517,0.217c0.133,0.144 0.199,0.388 0.199,0.732Z" style="fill-rule:nonzero;"/><path d="M967.365,294.68l-0.016,23.328c0,0.333 -0.064,0.571 -0.192,0.716c-0.127,0.144 -0.297,0.216 -0.508,0.216c-0.199,0 -0.366,-0.072 -0.499,-0.216c-0.133,-0.145 -0.2,-0.383 -0.2,-0.716l0,-23.328c0,-0.344 0.067,-0.588 0.2,-0.732c0.133,-0.145 0.3,-0.217 0.499,-0.217c0.211,0 0.383,0.072 0.517,0.217c0.133,0.144 0.199,0.388 0.199,0.732Z" style="fill-rule:nonzero;"/><path d="M1037.35,323.969l-18.599,0c-0.333,0 -0.572,-0.064 -0.716,-0.192c-0.144,-0.128 -0.216,-0.297 -0.216,-0.508c0,-0.211 0.072,-0.38 0.216,-0.508c0.144,-0.127 0.383,-0.191 0.716,-0.191l18.599,0c0.344,0 0.585,0.064 0.724,0.191c0.139,0.128 0.208,0.297 0.208,0.508c0,0.211 -0.069,0.38 -0.208,0.508c-0.139,0.128 -0.38,0.192 -0.724,0.192Z" style="fill-rule:nonzero;"/><path d="M1057.81,323.969l-18.598,0c-0.333,0 -0.572,-0.064 -0.716,-0.192c-0.145,-0.128 -0.217,-0.297 -0.217,-0.508c0,-0.211 0.072,-0.38 0.217,-0.508c0.144,-0.127 0.383,-0.191 0.716,-0.191l18.598,0c0.344,0 0.586,0.064 0.724,0.191c0.139,0.128 0.209,0.297 0.209,0.508c0,0.211 -0.07,0.38 -0.209,0.508c-0.138,0.128 -0.38,0.192 -0.724,0.192Z" style="fill-rule:nonzero;"/><path d="M1075.26,292.715l-11.256,24.11c-0.189,0.411 -0.433,0.617 -0.732,0.617c-0.189,0 -0.353,-0.07 -0.492,-0.209c-0.138,-0.138 -0.208,-0.291 -0.208,-0.457c0,-0.134 0.056,-0.317 0.167,-0.55l11.239,-24.11c0.122,-0.255 0.239,-0.422 0.35,-0.499c0.111,-0.078 0.244,-0.117 0.399,-0.117c0.189,0 0.353,0.069 0.491,0.208c0.139,0.139 0.208,0.291 0.208,0.458c0,0.122 -0.055,0.305 -0.166,0.549Z" style="fill-rule:nonzero;"/><path d="M1116.19,292.715l-11.256,24.11c-0.188,0.411 -0.433,0.617 -0.732,0.617c-0.189,0 -0.353,-0.07 -0.492,-0.209c-0.138,-0.138 -0.208,-0.291 -0.208,-0.457c0,-0.134 0.056,-0.317 0.167,-0.55l11.239,-24.11c0.122,-0.255 0.239,-0.422 0.35,-0.499c0.111,-0.078 0.244,-0.117 0.399,-0.117c0.189,0 0.353,0.069 0.491,0.208c0.139,0.139 0.208,0.291 0.208,0.458c0,0.122 -0.055,0.305 -0.166,0.549Z" style="fill-rule:nonzero;"/><path d="M1125.36,292.216l11.24,24.11c0.111,0.244 0.166,0.422 0.166,0.533c0,0.177 -0.069,0.336 -0.208,0.474c-0.139,0.139 -0.303,0.208 -0.491,0.208c-0.311,0 -0.561,-0.205 -0.75,-0.616l-11.239,-24.126c-0.111,-0.233 -0.166,-0.411 -0.166,-0.533c0,-0.178 0.069,-0.333 0.208,-0.466c0.139,-0.134 0.302,-0.2 0.491,-0.2c0.3,0 0.55,0.205 0.749,0.616Z" style="fill-rule:nonzero;"/><path d="M1160.13,323.969l-18.599,0c-0.333,0 -0.572,-0.064 -0.716,-0.192c-0.144,-0.128 -0.216,-0.297 -0.216,-0.508c0,-0.211 0.072,-0.38 0.216,-0.508c0.144,-0.127 0.383,-0.191 0.716,-0.191l18.599,0c0.344,0 0.585,0.064 0.724,0.191c0.139,0.128 0.208,0.297 0.208,0.508c0,0.211 -0.069,0.38 -0.208,0.508c-0.139,0.128 -0.38,0.192 -0.724,0.192Z" style="fill-rule:nonzero;"/><path d="M1180.59,323.969l-18.598,0c-0.333,0 -0.572,-0.064 -0.716,-0.192c-0.145,-0.128 -0.217,-0.297 -0.217,-0.508c0,-0.211 0.072,-0.38 0.217,-0.508c0.144,-0.127 0.383,-0.191 0.716,-0.191l18.598,0c0.344,0 0.586,0.064 0.725,0.191c0.138,0.128 0.208,0.297 0.208,0.508c0,0.211 -0.07,0.38 -0.208,0.508c-0.139,0.128 -0.381,0.192 -0.725,0.192Z" style="fill-rule:nonzero;"/><path d="M1198.04,292.715l-11.256,24.11c-0.188,0.411 -0.433,0.617 -0.732,0.617c-0.189,0 -0.353,-0.07 -0.492,-0.209c-0.138,-0.138 -0.208,-0.291 -0.208,-0.457c0,-0.134 0.056,-0.317 0.167,-0.55l11.239,-24.11c0.122,-0.255 0.239,-0.422 0.35,-0.499c0.111,-0.078 0.244,-0.117 0.399,-0.117c0.189,0 0.353,0.069 0.491,0.208c0.139,0.139 0.209,0.291 0.209,0.458c0,0.122 -0.056,0.305 -0.167,0.549Z" style="fill-rule:nonzero;"/><path d="M1238.97,292.715l-11.256,24.11c-0.188,0.411 -0.433,0.617 -0.732,0.617c-0.189,0 -0.353,-0.07 -0.491,-0.209c-0.139,-0.138 -0.209,-0.291 -0.209,-0.457c0,-0.134 0.056,-0.317 0.167,-0.55l11.239,-24.11c0.122,-0.255 0.239,-0.422 0.35,-0.499c0.111,-0.078 0.244,-0.117 0.399,-0.117c0.189,0 0.353,0.069 0.491,0.208c0.139,0.139 0.209,0.291 0.209,0.458c0,0.122 -0.056,0.305 -0.167,0.549Z" style="fill-rule:nonzero;"/><path d="M1274.32,294.68l-0.016,23.328c0,0.333 -0.064,0.571 -0.192,0.716c-0.128,0.144 -0.297,0.216 -0.508,0.216c-0.2,0 -0.366,-0.072 -0.499,-0.216c-0.133,-0.145 -0.2,-0.383 -0.2,-0.716l0,-23.328c0,-0.344 0.067,-0.588 0.2,-0.732c0.133,-0.145 0.299,-0.217 0.499,-0.217c0.211,0 0.383,0.072 0.516,0.217c0.134,0.144 0.2,0.388 0.2,0.732Z" style="fill-rule:nonzero;"/><path d="M1315.25,294.68l-0.016,23.328c0,0.333 -0.064,0.571 -0.192,0.716c-0.128,0.144 -0.297,0.216 -0.508,0.216c-0.2,0 -0.366,-0.072 -0.499,-0.216c-0.133,-0.145 -0.2,-0.383 -0.2,-0.716l0,-23.328c0,-0.344 0.067,-0.588 0.2,-0.732c0.133,-0.145 0.299,-0.217 0.499,-0.217c0.211,0 0.383,0.072 0.516,0.217c0.134,0.144 0.2,0.388 0.2,0.732Z" style="fill-rule:nonzero;"/><path d="M1335.71,294.68l-0.017,23.328c0,0.333 -0.064,0.571 -0.191,0.716c-0.128,0.144 -0.297,0.216 -0.508,0.216c-0.2,0 -0.367,-0.072 -0.5,-0.216c-0.133,-0.145 -0.2,-0.383 -0.2,-0.716l0,-23.328c0,-0.344 0.067,-0.588 0.2,-0.732c0.133,-0.145 0.3,-0.217 0.5,-0.217c0.211,0 0.383,0.072 0.516,0.217c0.133,0.144 0.2,0.388 0.2,0.732Z" style="fill-rule:nonzero;"/><path d="M1405.69,323.969l-18.599,0c-0.333,0 -0.571,-0.064 -0.716,-0.192c-0.144,-0.128 -0.216,-0.297 -0.216,-0.508c0,-0.211 0.072,-0.38 0.216,-0.508c0.145,-0.127 0.383,-0.191 0.716,-0.191l18.599,0c0.344,0 0.586,0.064 0.724,0.191c0.139,0.128 0.208,0.297 0.208,0.508c0,0.211 -0.069,0.38 -0.208,0.508c-0.138,0.128 -0.38,0.192 -0.724,0.192Z" style="fill-rule:nonzero;"/><path d="M1426.15,323.969l-18.599,0c-0.333,0 -0.572,-0.064 -0.716,-0.192c-0.144,-0.128 -0.217,-0.297 -0.217,-0.508c0,-0.211 0.073,-0.38 0.217,-0.508c0.144,-0.127 0.383,-0.191 0.716,-0.191l18.599,0c0.344,0 0.585,0.064 0.724,0.191c0.139,0.128 0.208,0.297 0.208,0.508c0,0.211 -0.069,0.38 -0.208,0.508c-0.139,0.128 -0.38,0.192 -0.724,0.192Z" style="fill-rule:nonzero;"/><path d="M1443.6,292.715l-11.255,24.11c-0.189,0.411 -0.433,0.617 -0.733,0.617c-0.189,0 -0.353,-0.07 -0.491,-0.209c-0.139,-0.138 -0.208,-0.291 -0.208,-0.457c0,-0.134 0.055,-0.317 0.166,-0.55l11.239,-24.11c0.122,-0.255 0.239,-0.422 0.35,-0.499c0.111,-0.078 0.244,-0.117 0.399,-0.117c0.189,0 0.353,0.069 0.492,0.208c0.138,0.139 0.208,0.291 0.208,0.458c0,0.122 -0.056,0.305 -0.167,0.549Z" style="fill-rule:nonzero;"/><path d="M1566.38,292.715l-11.255,24.11c-0.189,0.411 -0.433,0.617 -0.733,0.617c-0.189,0 -0.352,-0.07 -0.491,-0.209c-0.139,-0.138 -0.208,-0.291 -0.208,-0.457c0,-0.134 0.055,-0.317 0.166,-0.55l11.239,-24.11c0.122,-0.255 0.239,-0.422 0.35,-0.499c0.111,-0.078 0.244,-0.117 0.4,-0.117c0.188,0 0.352,0.069 0.491,0.208c0.139,0.139 0.208,0.291 0.208,0.458c0,0.122 -0.056,0.305 -0.167,0.549Z" style="fill-rule:nonzero;"/><path d="M1607.31,292.715l-11.255,24.11c-0.189,0.411 -0.433,0.617 -0.733,0.617c-0.189,0 -0.352,-0.07 -0.491,-0.209c-0.139,-0.138 -0.208,-0.291 -0.208,-0.457c0,-0.134 0.055,-0.317 0.166,-0.55l11.239,-24.11c0.122,-0.255 0.239,-0.422 0.35,-0.499c0.111,-0.078 0.244,-0.117 0.4,-0.117c0.188,0 0.352,0.069 0.491,0.208c0.139,0.139 0.208,0.291 0.208,0.458c0,0.122 -0.056,0.305 -0.167,0.549Z" style="fill-rule:nonzero;"/><path d="M1648.24,292.715l-11.256,24.11c-0.189,0.411 -0.433,0.617 -0.733,0.617c-0.189,0 -0.352,-0.07 -0.491,-0.209c-0.139,-0.138 -0.208,-0.291 -0.208,-0.457c0,-0.134 0.055,-0.317 0.166,-0.55l11.239,-24.11c0.123,-0.255 0.239,-0.422 0.35,-0.499c0.111,-0.078 0.244,-0.117 0.4,-0.117c0.188,0 0.352,0.069 0.491,0.208c0.139,0.139 0.208,0.291 0.208,0.458c0,0.122 -0.055,0.305 -0.166,0.549Z" style="fill-rule:nonzero;"/><path d="M102.186,338.316l11.24,24.11c0.111,0.244 0.166,0.422 0.166,0.533c0,0.178 -0.069,0.336 -0.208,0.475c-0.139,0.138 -0.303,0.208 -0.491,0.208c-0.311,0 -0.561,-0.206 -0.75,-0.616l-11.239,-24.127c-0.111,-0.233 -0.166,-0.411 -0.166,-0.533c0,-0.177 0.069,-0.333 0.208,-0.466c0.139,-0.133 0.302,-0.2 0.491,-0.2c0.3,0 0.55,0.206 0.749,0.616Z" style="fill-rule:nonzero;"/><path d="M136.953,370.069l-18.599,0c-0.333,0 -0.572,-0.064 -0.716,-0.192c-0.144,-0.127 -0.216,-0.297 -0.216,-0.507c0,-0.211 0.072,-0.381 0.216,-0.508c0.144,-0.128 0.383,-0.192 0.716,-0.192l18.599,0c0.344,0 0.585,0.064 0.724,0.192c0.139,0.127 0.208,0.297 0.208,0.508c0,0.21 -0.069,0.38 -0.208,0.507c-0.139,0.128 -0.38,0.192 -0.724,0.192Z" style="fill-rule:nonzero;"/><path d="M143.113,338.316l11.24,24.11c0.111,0.244 0.166,0.422 0.166,0.533c0,0.178 -0.069,0.336 -0.208,0.475c-0.139,0.138 -0.303,0.208 -0.491,0.208c-0.311,0 -0.561,-0.206 -0.749,-0.616l-11.24,-24.127c-0.111,-0.233 -0.166,-0.411 -0.166,-0.533c0,-0.177 0.069,-0.333 0.208,-0.466c0.139,-0.133 0.303,-0.2 0.491,-0.2c0.3,0 0.55,0.206 0.749,0.616Z" style="fill-rule:nonzero;"/><path d="M177.88,370.069l-18.599,0c-0.333,0 -0.572,-0.064 -0.716,-0.192c-0.144,-0.127 -0.216,-0.297 -0.216,-0.507c0,-0.211 0.072,-0.381 0.216,-0.508c0.144,-0.128 0.383,-0.192 0.716,-0.192l18.599,0c0.344,0 0.585,0.064 0.724,0.192c0.139,0.127 0.208,0.297 0.208,0.508c0,0.21 -0.069,0.38 -0.208,0.507c-0.139,0.128 -0.38,0.192 -0.724,0.192Z" style="fill-rule:nonzero;"/><path d="M184.041,338.316l11.239,24.11c0.111,0.244 0.166,0.422 0.166,0.533c0,0.178 -0.069,0.336 -0.208,0.475c-0.139,0.138 -0.302,0.208 -0.491,0.208c-0.311,0 -0.561,-0.206 -0.749,-0.616l-11.24,-24.127c-0.111,-0.233 -0.166,-0.411 -0.166,-0.533c0,-0.177 0.069,-0.333 0.208,-0.466c0.139,-0.133 0.303,-0.2 0.491,-0.2c0.3,0 0.55,0.206 0.75,0.616Z" style="fill-rule:nonzero;"/><path d="M286.358,338.316l11.239,24.11c0.111,0.244 0.167,0.422 0.167,0.533c0,0.178 -0.07,0.336 -0.208,0.475c-0.139,0.138 -0.303,0.208 -0.492,0.208c-0.31,0 -0.56,-0.206 -0.749,-0.616l-11.239,-24.127c-0.111,-0.233 -0.166,-0.411 -0.166,-0.533c0,-0.177 0.069,-0.333 0.208,-0.466c0.138,-0.133 0.302,-0.2 0.491,-0.2c0.3,0 0.549,0.206 0.749,0.616Z" style="fill-rule:nonzero;"/><path d="M321.124,370.069l-18.598,0c-0.333,0 -0.572,-0.064 -0.716,-0.192c-0.144,-0.127 -0.217,-0.297 -0.217,-0.507c0,-0.211 0.073,-0.381 0.217,-0.508c0.144,-0.128 0.383,-0.192 0.716,-0.192l18.598,0c0.345,0 0.586,0.064 0.725,0.192c0.139,0.127 0.208,0.297 0.208,0.508c0,0.21 -0.069,0.38 -0.208,0.507c-0.139,0.128 -0.38,0.192 -0.725,0.192Z" style="fill-rule:nonzero;"/><path d="M341.588,370.069l-18.599,0c-0.333,0 -0.571,-0.064 -0.716,-0.192c-0.144,-0.127 -0.216,-0.297 -0.216,-0.507c0,-0.211 0.072,-0.381 0.216,-0.508c0.145,-0.128 0.383,-0.192 0.716,-0.192l18.599,0c0.344,0 0.586,0.064 0.724,0.192c0.139,0.127 0.208,0.297 0.208,0.508c0,0.21 -0.069,0.38 -0.208,0.507c-0.138,0.128 -0.38,0.192 -0.724,0.192Z" style="fill-rule:nonzero;"/><path d="M362.051,370.069l-18.598,0c-0.333,0 -0.572,-0.064 -0.716,-0.192c-0.144,-0.127 -0.217,-0.297 -0.217,-0.507c0,-0.211 0.073,-0.381 0.217,-0.508c0.144,-0.128 0.383,-0.192 0.716,-0.192l18.598,0c0.345,0 0.586,0.064 0.725,0.192c0.139,0.127 0.208,0.297 0.208,0.508c0,0.21 -0.069,0.38 -0.208,0.507c-0.139,0.128 -0.38,0.192 -0.725,0.192Z" style="fill-rule:nonzero;"/><path d="M382.515,370.069l-18.599,0c-0.333,0 -0.571,-0.064 -0.716,-0.192c-0.144,-0.127 -0.216,-0.297 -0.216,-0.507c0,-0.211 0.072,-0.381 0.216,-0.508c0.145,-0.128 0.383,-0.192 0.716,-0.192l18.599,0c0.344,0 0.586,0.064 0.724,0.192c0.139,0.127 0.208,0.297 0.208,0.508c0,0.21 -0.069,0.38 -0.208,0.507c-0.138,0.128 -0.38,0.192 -0.724,0.192Z" style="fill-rule:nonzero;"/><path d="M399.965,338.816l-11.256,24.11c-0.189,0.41 -0.433,0.616 -0.733,0.616c-0.188,0 -0.352,-0.07 -0.491,-0.208c-0.139,-0.139 -0.208,-0.292 -0.208,-0.458c0,-0.133 0.056,-0.317 0.167,-0.55l11.239,-24.11c0.122,-0.255 0.238,-0.421 0.349,-0.499c0.111,-0.078 0.245,-0.117 0.4,-0.117c0.189,0 0.352,0.07 0.491,0.208c0.139,0.139 0.208,0.292 0.208,0.458c0,0.122 -0.055,0.306 -0.166,0.55Z" style="fill-rule:nonzero;"/><path d="M423.442,370.069l-18.599,0c-0.333,0 -0.571,-0.064 -0.716,-0.192c-0.144,-0.127 -0.216,-0.297 -0.216,-0.507c0,-0.211 0.072,-0.381 0.216,-0.508c0.145,-0.128 0.383,-0.192 0.716,-0.192l18.599,0c0.344,0 0.586,0.064 0.724,0.192c0.139,0.127 0.208,0.297 0.208,0.508c0,0.21 -0.069,0.38 -0.208,0.507c-0.138,0.128 -0.38,0.192 -0.724,0.192Z" style="fill-rule:nonzero;"/><path d="M440.892,338.816l-11.256,24.11c-0.189,0.41 -0.433,0.616 -0.733,0.616c-0.188,0 -0.352,-0.07 -0.491,-0.208c-0.139,-0.139 -0.208,-0.292 -0.208,-0.458c0,-0.133 0.056,-0.317 0.167,-0.55l11.239,-24.11c0.122,-0.255 0.238,-0.421 0.349,-0.499c0.111,-0.078 0.245,-0.117 0.4,-0.117c0.189,0 0.352,0.07 0.491,0.208c0.139,0.139 0.208,0.292 0.208,0.458c0,0.122 -0.055,0.306 -0.166,0.55Z" style="fill-rule:nonzero;"/><path d="M450.066,338.316l11.239,24.11c0.111,0.244 0.167,0.422 0.167,0.533c0,0.178 -0.069,0.336 -0.208,0.475c-0.139,0.138 -0.303,0.208 -0.491,0.208c-0.311,0 -0.561,-0.206 -0.75,-0.616l-11.239,-24.127c-0.111,-0.233 -0.166,-0.411 -0.166,-0.533c0,-0.177 0.069,-0.333 0.208,-0.466c0.139,-0.133 0.302,-0.2 0.491,-0.2c0.3,0 0.549,0.206 0.749,0.616Z" style="fill-rule:nonzero;"/><path d="M484.833,370.069l-18.599,0c-0.333,0 -0.572,-0.064 -0.716,-0.192c-0.144,-0.127 -0.216,-0.297 -0.216,-0.507c0,-0.211 0.072,-0.381 0.216,-0.508c0.144,-0.128 0.383,-0.192 0.716,-0.192l18.599,0c0.344,0 0.585,0.064 0.724,0.192c0.139,0.127 0.208,0.297 0.208,0.508c0,0.21 -0.069,0.38 -0.208,0.507c-0.139,0.128 -0.38,0.192 -0.724,0.192Z" style="fill-rule:nonzero;"/><path d="M490.993,338.316l11.239,24.11c0.111,0.244 0.167,0.422 0.167,0.533c0,0.178 -0.069,0.336 -0.208,0.475c-0.139,0.138 -0.303,0.208 -0.491,0.208c-0.311,0 -0.561,-0.206 -0.75,-0.616l-11.239,-24.127c-0.111,-0.233 -0.166,-0.411 -0.166,-0.533c0,-0.177 0.069,-0.333 0.208,-0.466c0.139,-0.133 0.302,-0.2 0.491,-0.2c0.3,0 0.55,0.206 0.749,0.616Z" style="fill-rule:nonzero;"/><path d="M525.76,370.069l-18.599,0c-0.333,0 -0.572,-0.064 -0.716,-0.192c-0.144,-0.127 -0.216,-0.297 -0.216,-0.507c0,-0.211 0.072,-0.381 0.216,-0.508c0.144,-0.128 0.383,-0.192 0.716,-0.192l18.599,0c0.344,0 0.585,0.064 0.724,0.192c0.139,0.127 0.208,0.297 0.208,0.508c0,0.21 -0.069,0.38 -0.208,0.507c-0.139,0.128 -0.38,0.192 -0.724,0.192Z" style="fill-rule:nonzero;"/><path d="M546.223,370.069l-18.598,0c-0.333,0 -0.572,-0.064 -0.716,-0.192c-0.145,-0.127 -0.217,-0.297 -0.217,-0.507c0,-0.211 0.072,-0.381 0.217,-0.508c0.144,-0.128 0.383,-0.192 0.716,-0.192l18.598,0c0.344,0 0.586,0.064 0.724,0.192c0.139,0.127 0.209,0.297 0.209,0.508c0,0.21 -0.07,0.38 -0.209,0.507c-0.138,0.128 -0.38,0.192 -0.724,0.192Z" style="fill-rule:nonzero;"/><path d="M554.615,355.699l4.546,0l-4.946,9.192c-0.299,0.555 -0.66,0.832 -1.082,0.832c-0.277,0 -0.513,-0.097 -0.707,-0.291c-0.195,-0.195 -0.292,-0.43 -0.292,-0.708c0,-0.111 0.017,-0.233 0.05,-0.366l2.431,-8.659Z" style="fill-rule:nonzero;"/><path d="M587.15,370.069l-18.598,0c-0.333,0 -0.572,-0.064 -0.716,-0.192c-0.145,-0.127 -0.217,-0.297 -0.217,-0.507c0,-0.211 0.072,-0.381 0.217,-0.508c0.144,-0.128 0.383,-0.192 0.716,-0.192l18.598,0c0.344,0 0.586,0.064 0.725,0.192c0.138,0.127 0.208,0.297 0.208,0.508c0,0.21 -0.07,0.38 -0.208,0.507c-0.139,0.128 -0.381,0.192 -0.725,0.192Z" style="fill-rule:nonzero;"/><path d="M599.022,340.781l-0.017,23.327c0,0.333 -0.063,0.572 -0.191,0.716c-0.128,0.144 -0.297,0.216 -0.508,0.216c-0.2,0 -0.366,-0.072 -0.499,-0.216c-0.134,-0.144 -0.2,-0.383 -0.2,-0.716l0,-23.327c0,-0.345 0.066,-0.589 0.2,-0.733c0.133,-0.144 0.299,-0.217 0.499,-0.217c0.211,0 0.383,0.073 0.516,0.217c0.133,0.144 0.2,0.388 0.2,0.733Z" style="fill-rule:nonzero;"/><path d="M628.077,370.069l-18.598,0c-0.333,0 -0.572,-0.064 -0.716,-0.192c-0.145,-0.127 -0.217,-0.297 -0.217,-0.507c0,-0.211 0.072,-0.381 0.217,-0.508c0.144,-0.128 0.383,-0.192 0.716,-0.192l18.598,0c0.344,0 0.586,0.064 0.725,0.192c0.138,0.127 0.208,0.297 0.208,0.508c0,0.21 -0.07,0.38 -0.208,0.507c-0.139,0.128 -0.381,0.192 -0.725,0.192Z" style="fill-rule:nonzero;"/><path d="M639.949,340.781l-0.017,23.327c0,0.333 -0.063,0.572 -0.191,0.716c-0.128,0.144 -0.297,0.216 -0.508,0.216c-0.2,0 -0.366,-0.072 -0.499,-0.216c-0.134,-0.144 -0.2,-0.383 -0.2,-0.716l0,-23.327c0,-0.345 0.066,-0.589 0.2,-0.733c0.133,-0.144 0.299,-0.217 0.499,-0.217c0.211,0 0.383,0.073 0.516,0.217c0.133,0.144 0.2,0.388 0.2,0.733Z" style="fill-rule:nonzero;"/><path d="M680.876,340.781l-0.017,23.327c0,0.333 -0.063,0.572 -0.191,0.716c-0.128,0.144 -0.297,0.216 -0.508,0.216c-0.2,0 -0.366,-0.072 -0.499,-0.216c-0.134,-0.144 -0.2,-0.383 -0.2,-0.716l0,-23.327c0,-0.345 0.066,-0.589 0.2,-0.733c0.133,-0.144 0.299,-0.217 0.499,-0.217c0.211,0 0.383,0.073 0.516,0.217c0.134,0.144 0.2,0.388 0.2,0.733Z" style="fill-rule:nonzero;"/><path d="M709.931,370.069l-18.598,0c-0.333,0 -0.572,-0.064 -0.716,-0.192c-0.145,-0.127 -0.217,-0.297 -0.217,-0.507c0,-0.211 0.072,-0.381 0.217,-0.508c0.144,-0.128 0.383,-0.192 0.716,-0.192l18.598,0c0.344,0 0.586,0.064 0.725,0.192c0.138,0.127 0.208,0.297 0.208,0.508c0,0.21 -0.07,0.38 -0.208,0.507c-0.139,0.128 -0.381,0.192 -0.725,0.192Z" style="fill-rule:nonzero;"/><path d="M721.803,340.781l-0.016,23.327c0,0.333 -0.064,0.572 -0.192,0.716c-0.128,0.144 -0.297,0.216 -0.508,0.216c-0.2,0 -0.366,-0.072 -0.499,-0.216c-0.134,-0.144 -0.2,-0.383 -0.2,-0.716l0,-23.327c0,-0.345 0.066,-0.589 0.2,-0.733c0.133,-0.144 0.299,-0.217 0.499,-0.217c0.211,0 0.383,0.073 0.516,0.217c0.134,0.144 0.2,0.388 0.2,0.733Z" style="fill-rule:nonzero;"/><path d="M762.73,340.781l-0.016,23.327c0,0.333 -0.064,0.572 -0.192,0.716c-0.128,0.144 -0.297,0.216 -0.508,0.216c-0.2,0 -0.366,-0.072 -0.499,-0.216c-0.133,-0.144 -0.2,-0.383 -0.2,-0.716l0,-23.327c0,-0.345 0.067,-0.589 0.2,-0.733c0.133,-0.144 0.299,-0.217 0.499,-0.217c0.211,0 0.383,0.073 0.516,0.217c0.134,0.144 0.2,0.388 0.2,0.733Z" style="fill-rule:nonzero;"/><path d="M791.785,370.069l-18.598,0c-0.333,0 -0.572,-0.064 -0.716,-0.192c-0.145,-0.127 -0.217,-0.297 -0.217,-0.507c0,-0.211 0.072,-0.381 0.217,-0.508c0.144,-0.128 0.383,-0.192 0.716,-0.192l18.598,0c0.345,0 0.586,0.064 0.725,0.192c0.138,0.127 0.208,0.297 0.208,0.508c0,0.21 -0.07,0.38 -0.208,0.507c-0.139,0.128 -0.38,0.192 -0.725,0.192Z" style="fill-rule:nonzero;"/><path d="M803.657,340.781l-0.016,23.327c0,0.333 -0.064,0.572 -0.192,0.716c-0.128,0.144 -0.297,0.216 -0.508,0.216c-0.2,0 -0.366,-0.072 -0.499,-0.216c-0.133,-0.144 -0.2,-0.383 -0.2,-0.716l0,-23.327c0,-0.345 0.067,-0.589 0.2,-0.733c0.133,-0.144 0.299,-0.217 0.499,-0.217c0.211,0 0.383,0.073 0.516,0.217c0.134,0.144 0.2,0.388 0.2,0.733Z" style="fill-rule:nonzero;"/><path d="M843.585,356.715l0.6,0c0.621,0 1.154,0.219 1.598,0.658c0.444,0.438 0.666,0.968 0.666,1.59c0,0.644 -0.225,1.182 -0.674,1.615c-0.45,0.433 -0.98,0.649 -1.59,0.649l-0.6,0c-0.621,0 -1.154,-0.219 -1.598,-0.657c-0.444,-0.439 -0.666,-0.969 -0.666,-1.59c0,-0.644 0.225,-1.183 0.674,-1.616c0.45,-0.432 0.98,-0.649 1.59,-0.649Z" style="fill-rule:nonzero;"/><path d="M873.639,370.069l-18.598,0c-0.333,0 -0.572,-0.064 -0.716,-0.192c-0.144,-0.127 -0.217,-0.297 -0.217,-0.507c0,-0.211 0.073,-0.381 0.217,-0.508c0.144,-0.128 0.383,-0.192 0.716,-0.192l18.598,0c0.345,0 0.586,0.064 0.725,0.192c0.139,0.127 0.208,0.297 0.208,0.508c0,0.21 -0.069,0.38 -0.208,0.507c-0.139,0.128 -0.38,0.192 -0.725,0.192Z" style="fill-rule:nonzero;"/><path d="M894.103,370.069l-18.599,0c-0.333,0 -0.571,-0.064 -0.716,-0.192c-0.144,-0.127 -0.216,-0.297 -0.216,-0.507c0,-0.211 0.072,-0.381 0.216,-0.508c0.145,-0.128 0.383,-0.192 0.716,-0.192l18.599,0c0.344,0 0.586,0.064 0.724,0.192c0.139,0.127 0.208,0.297 0.208,0.508c0,0.21 -0.069,0.38 -0.208,0.507c-0.138,0.128 -0.38,0.192 -0.724,0.192Z" style="fill-rule:nonzero;"/><path d="M911.553,338.816l-11.256,24.11c-0.189,0.41 -0.433,0.616 -0.733,0.616c-0.188,0 -0.352,-0.07 -0.491,-0.208c-0.139,-0.139 -0.208,-0.292 -0.208,-0.458c0,-0.133 0.056,-0.317 0.167,-0.55l11.239,-24.11c0.122,-0.255 0.238,-0.421 0.349,-0.499c0.111,-0.078 0.245,-0.117 0.4,-0.117c0.189,0 0.352,0.07 0.491,0.208c0.139,0.139 0.208,0.292 0.208,0.458c0,0.122 -0.055,0.306 -0.166,0.55Z" style="fill-rule:nonzero;"/><path d="M926.438,340.781l-0.016,23.327c0,0.333 -0.064,0.572 -0.192,0.716c-0.127,0.144 -0.297,0.216 -0.508,0.216c-0.199,0 -0.366,-0.072 -0.499,-0.216c-0.133,-0.144 -0.2,-0.383 -0.2,-0.716l0,-23.327c0,-0.345 0.067,-0.589 0.2,-0.733c0.133,-0.144 0.3,-0.217 0.499,-0.217c0.211,0 0.383,0.073 0.517,0.217c0.133,0.144 0.199,0.388 0.199,0.733Z" style="fill-rule:nonzero;"/><path d="M955.494,370.069l-18.599,0c-0.333,0 -0.572,-0.064 -0.716,-0.192c-0.144,-0.127 -0.217,-0.297 -0.217,-0.507c0,-0.211 0.073,-0.381 0.217,-0.508c0.144,-0.128 0.383,-0.192 0.716,-0.192l18.599,0c0.344,0 0.585,0.064 0.724,0.192c0.139,0.127 0.208,0.297 0.208,0.508c0,0.21 -0.069,0.38 -0.208,0.507c-0.139,0.128 -0.38,0.192 -0.724,0.192Z" style="fill-rule:nonzero;"/><path d="M967.365,340.781l-0.016,23.327c0,0.333 -0.064,0.572 -0.192,0.716c-0.127,0.144 -0.297,0.216 -0.508,0.216c-0.199,0 -0.366,-0.072 -0.499,-0.216c-0.133,-0.144 -0.2,-0.383 -0.2,-0.716l0,-23.327c0,-0.345 0.067,-0.589 0.2,-0.733c0.133,-0.144 0.3,-0.217 0.499,-0.217c0.211,0 0.383,0.073 0.517,0.217c0.133,0.144 0.199,0.388 0.199,0.733Z" style="fill-rule:nonzero;"/><path d="M982.118,338.316l11.239,24.11c0.111,0.244 0.166,0.422 0.166,0.533c0,0.178 -0.069,0.336 -0.208,0.475c-0.138,0.138 -0.302,0.208 -0.491,0.208c-0.311,0 -0.56,-0.206 -0.749,-0.616l-11.239,-24.127c-0.111,-0.233 -0.167,-0.411 -0.167,-0.533c0,-0.177 0.07,-0.333 0.208,-0.466c0.139,-0.133 0.303,-0.2 0.492,-0.2c0.299,0 0.549,0.206 0.749,0.616Z" style="fill-rule:nonzero;"/><path d="M1016.88,370.069l-18.599,0c-0.333,0 -0.571,-0.064 -0.715,-0.192c-0.145,-0.127 -0.217,-0.297 -0.217,-0.507c0,-0.211 0.072,-0.381 0.217,-0.508c0.144,-0.128 0.382,-0.192 0.715,-0.192l18.599,0c0.344,0 0.586,0.064 0.724,0.192c0.139,0.127 0.209,0.297 0.209,0.508c0,0.21 -0.07,0.38 -0.209,0.507c-0.138,0.128 -0.38,0.192 -0.724,0.192Z" style="fill-rule:nonzero;"/><path d="M1037.35,370.069l-18.599,0c-0.333,0 -0.572,-0.064 -0.716,-0.192c-0.144,-0.127 -0.216,-0.297 -0.216,-0.507c0,-0.211 0.072,-0.381 0.216,-0.508c0.144,-0.128 0.383,-0.192 0.716,-0.192l18.599,0c0.344,0 0.585,0.064 0.724,0.192c0.139,0.127 0.208,0.297 0.208,0.508c0,0.21 -0.069,0.38 -0.208,0.507c-0.139,0.128 -0.38,0.192 -0.724,0.192Z" style="fill-rule:nonzero;"/><path d="M1057.81,370.069l-18.598,0c-0.333,0 -0.572,-0.064 -0.716,-0.192c-0.145,-0.127 -0.217,-0.297 -0.217,-0.507c0,-0.211 0.072,-0.381 0.217,-0.508c0.144,-0.128 0.383,-0.192 0.716,-0.192l18.598,0c0.344,0 0.586,0.064 0.724,0.192c0.139,0.127 0.209,0.297 0.209,0.508c0,0.21 -0.07,0.38 -0.209,0.507c-0.138,0.128 -0.38,0.192 -0.724,0.192Z" style="fill-rule:nonzero;"/><path d="M1069.68,340.781l-0.017,23.327c0,0.333 -0.063,0.572 -0.191,0.716c-0.128,0.144 -0.297,0.216 -0.508,0.216c-0.2,0 -0.366,-0.072 -0.499,-0.216c-0.134,-0.144 -0.2,-0.383 -0.2,-0.716l0,-23.327c0,-0.345 0.066,-0.589 0.2,-0.733c0.133,-0.144 0.299,-0.217 0.499,-0.217c0.211,0 0.383,0.073 0.516,0.217c0.133,0.144 0.2,0.388 0.2,0.733Z" style="fill-rule:nonzero;"/><path d="M1104.9,338.316l11.239,24.11c0.111,0.244 0.167,0.422 0.167,0.533c0,0.178 -0.07,0.336 -0.209,0.475c-0.138,0.138 -0.302,0.208 -0.491,0.208c-0.311,0 -0.56,-0.206 -0.749,-0.616l-11.239,-24.127c-0.111,-0.233 -0.167,-0.411 -0.167,-0.533c0,-0.177 0.07,-0.333 0.208,-0.466c0.139,-0.133 0.303,-0.2 0.492,-0.2c0.299,0 0.549,0.206 0.749,0.616Z" style="fill-rule:nonzero;"/><path d="M1139.66,370.069l-18.598,0c-0.333,0 -0.572,-0.064 -0.716,-0.192c-0.145,-0.127 -0.217,-0.297 -0.217,-0.507c0,-0.211 0.072,-0.381 0.217,-0.508c0.144,-0.128 0.383,-0.192 0.716,-0.192l18.598,0c0.344,0 0.586,0.064 0.725,0.192c0.138,0.127 0.208,0.297 0.208,0.508c0,0.21 -0.07,0.38 -0.208,0.507c-0.139,0.128 -0.381,0.192 -0.725,0.192Z" style="fill-rule:nonzero;"/><path d="M1160.13,370.069l-18.599,0c-0.333,0 -0.572,-0.064 -0.716,-0.192c-0.144,-0.127 -0.216,-0.297 -0.216,-0.507c0,-0.211 0.072,-0.381 0.216,-0.508c0.144,-0.128 0.383,-0.192 0.716,-0.192l18.599,0c0.344,0 0.585,0.064 0.724,0.192c0.139,0.127 0.208,0.297 0.208,0.508c0,0.21 -0.069,0.38 -0.208,0.507c-0.139,0.128 -0.38,0.192 -0.724,0.192Z" style="fill-rule:nonzero;"/><path d="M1180.59,370.069l-18.598,0c-0.333,0 -0.572,-0.064 -0.716,-0.192c-0.145,-0.127 -0.217,-0.297 -0.217,-0.507c0,-0.211 0.072,-0.381 0.217,-0.508c0.144,-0.128 0.383,-0.192 0.716,-0.192l18.598,0c0.344,0 0.586,0.064 0.725,0.192c0.138,0.127 0.208,0.297 0.208,0.508c0,0.21 -0.07,0.38 -0.208,0.507c-0.139,0.128 -0.381,0.192 -0.725,0.192Z" style="fill-rule:nonzero;"/><path d="M1201.06,370.069l-18.599,0c-0.333,0 -0.572,-0.064 -0.716,-0.192c-0.144,-0.127 -0.216,-0.297 -0.216,-0.507c0,-0.211 0.072,-0.381 0.216,-0.508c0.144,-0.128 0.383,-0.192 0.716,-0.192l18.599,0c0.344,0 0.585,0.064 0.724,0.192c0.139,0.127 0.208,0.297 0.208,0.508c0,0.21 -0.069,0.38 -0.208,0.507c-0.139,0.128 -0.38,0.192 -0.724,0.192Z" style="fill-rule:nonzero;"/><path d="M1218.51,338.816l-11.256,24.11c-0.189,0.41 -0.433,0.616 -0.733,0.616c-0.189,0 -0.352,-0.07 -0.491,-0.208c-0.139,-0.139 -0.208,-0.292 -0.208,-0.458c0,-0.133 0.055,-0.317 0.166,-0.55l11.239,-24.11c0.123,-0.255 0.239,-0.421 0.35,-0.499c0.111,-0.078 0.244,-0.117 0.4,-0.117c0.188,0 0.352,0.07 0.491,0.208c0.139,0.139 0.208,0.292 0.208,0.458c0,0.122 -0.055,0.306 -0.166,0.55Z" style="fill-rule:nonzero;"/><path d="M1233.39,340.781l-0.016,23.327c0,0.333 -0.064,0.572 -0.192,0.716c-0.128,0.144 -0.297,0.216 -0.508,0.216c-0.2,0 -0.366,-0.072 -0.499,-0.216c-0.134,-0.144 -0.2,-0.383 -0.2,-0.716l0,-23.327c0,-0.345 0.066,-0.589 0.2,-0.733c0.133,-0.144 0.299,-0.217 0.499,-0.217c0.211,0 0.383,0.073 0.516,0.217c0.134,0.144 0.2,0.388 0.2,0.733Z" style="fill-rule:nonzero;"/><path d="M1262.45,370.069l-18.598,0c-0.333,0 -0.572,-0.064 -0.716,-0.192c-0.145,-0.127 -0.217,-0.297 -0.217,-0.507c0,-0.211 0.072,-0.381 0.217,-0.508c0.144,-0.128 0.383,-0.192 0.716,-0.192l18.598,0c0.344,0 0.586,0.064 0.725,0.192c0.138,0.127 0.208,0.297 0.208,0.508c0,0.21 -0.07,0.38 -0.208,0.507c-0.139,0.128 -0.381,0.192 -0.725,0.192Z" style="fill-rule:nonzero;"/><path d="M1274.32,340.781l-0.016,23.327c0,0.333 -0.064,0.572 -0.192,0.716c-0.128,0.144 -0.297,0.216 -0.508,0.216c-0.2,0 -0.366,-0.072 -0.499,-0.216c-0.133,-0.144 -0.2,-0.383 -0.2,-0.716l0,-23.327c0,-0.345 0.067,-0.589 0.2,-0.733c0.133,-0.144 0.299,-0.217 0.499,-0.217c0.211,0 0.383,0.073 0.516,0.217c0.134,0.144 0.2,0.388 0.2,0.733Z" style="fill-rule:nonzero;"/><path d="M1289.07,338.316l11.239,24.11c0.111,0.244 0.166,0.422 0.166,0.533c0,0.178 -0.069,0.336 -0.208,0.475c-0.139,0.138 -0.302,0.208 -0.491,0.208c-0.311,0 -0.561,-0.206 -0.749,-0.616l-11.239,-24.127c-0.111,-0.233 -0.167,-0.411 -0.167,-0.533c0,-0.177 0.069,-0.333 0.208,-0.466c0.139,-0.133 0.303,-0.2 0.491,-0.2c0.3,0 0.55,0.206 0.75,0.616Z" style="fill-rule:nonzero;"/><path d="M1323.84,370.069l-18.599,0c-0.333,0 -0.571,-0.064 -0.716,-0.192c-0.144,-0.127 -0.216,-0.297 -0.216,-0.507c0,-0.211 0.072,-0.381 0.216,-0.508c0.145,-0.128 0.383,-0.192 0.716,-0.192l18.599,0c0.344,0 0.585,0.064 0.724,0.192c0.139,0.127 0.208,0.297 0.208,0.508c0,0.21 -0.069,0.38 -0.208,0.507c-0.139,0.128 -0.38,0.192 -0.724,0.192Z" style="fill-rule:nonzero;"/><path d="M1344.3,370.069l-18.598,0c-0.333,0 -0.572,-0.064 -0.716,-0.192c-0.144,-0.127 -0.217,-0.297 -0.217,-0.507c0,-0.211 0.073,-0.381 0.217,-0.508c0.144,-0.128 0.383,-0.192 0.716,-0.192l18.598,0c0.345,0 0.586,0.064 0.725,0.192c0.139,0.127 0.208,0.297 0.208,0.508c0,0.21 -0.069,0.38 -0.208,0.507c-0.139,0.128 -0.38,0.192 -0.725,0.192Z" style="fill-rule:nonzero;"/><path d="M1350.46,338.316l11.239,24.11c0.111,0.244 0.167,0.422 0.167,0.533c0,0.178 -0.07,0.336 -0.208,0.475c-0.139,0.138 -0.303,0.208 -0.492,0.208c-0.31,0 -0.56,-0.206 -0.749,-0.616l-11.239,-24.127c-0.111,-0.233 -0.166,-0.411 -0.166,-0.533c0,-0.177 0.069,-0.333 0.208,-0.466c0.138,-0.133 0.302,-0.2 0.491,-0.2c0.3,0 0.549,0.206 0.749,0.616Z" style="fill-rule:nonzero;"/><path d="M1385.23,370.069l-18.598,0c-0.333,0 -0.572,-0.064 -0.716,-0.192c-0.144,-0.127 -0.217,-0.297 -0.217,-0.507c0,-0.211 0.073,-0.381 0.217,-0.508c0.144,-0.128 0.383,-0.192 0.716,-0.192l18.598,0c0.345,0 0.586,0.064 0.725,0.192c0.139,0.127 0.208,0.297 0.208,0.508c0,0.21 -0.069,0.38 -0.208,0.507c-0.139,0.128 -0.38,0.192 -0.725,0.192Z" style="fill-rule:nonzero;"/><path d="M1405.69,370.069l-18.599,0c-0.333,0 -0.571,-0.064 -0.716,-0.192c-0.144,-0.127 -0.216,-0.297 -0.216,-0.507c0,-0.211 0.072,-0.381 0.216,-0.508c0.145,-0.128 0.383,-0.192 0.716,-0.192l18.599,0c0.344,0 0.586,0.064 0.724,0.192c0.139,0.127 0.208,0.297 0.208,0.508c0,0.21 -0.069,0.38 -0.208,0.507c-0.138,0.128 -0.38,0.192 -0.724,0.192Z" style="fill-rule:nonzero;"/><path d="M1426.15,370.069l-18.599,0c-0.333,0 -0.572,-0.064 -0.716,-0.192c-0.144,-0.127 -0.217,-0.297 -0.217,-0.507c0,-0.211 0.073,-0.381 0.217,-0.508c0.144,-0.128 0.383,-0.192 0.716,-0.192l18.599,0c0.344,0 0.585,0.064 0.724,0.192c0.139,0.127 0.208,0.297 0.208,0.508c0,0.21 -0.069,0.38 -0.208,0.507c-0.139,0.128 -0.38,0.192 -0.724,0.192Z" style="fill-rule:nonzero;"/><path d="M1438.03,340.781l-0.016,23.327c0,0.333 -0.064,0.572 -0.192,0.716c-0.127,0.144 -0.297,0.216 -0.508,0.216c-0.199,0 -0.366,-0.072 -0.499,-0.216c-0.133,-0.144 -0.2,-0.383 -0.2,-0.716l0,-23.327c0,-0.345 0.067,-0.589 0.2,-0.733c0.133,-0.144 0.3,-0.217 0.499,-0.217c0.211,0 0.383,0.073 0.517,0.217c0.133,0.144 0.199,0.388 0.199,0.733Z" style="fill-rule:nonzero;"/><path d="M1545.92,338.816l-11.256,24.11c-0.189,0.41 -0.433,0.616 -0.732,0.616c-0.189,0 -0.353,-0.07 -0.492,-0.208c-0.138,-0.139 -0.208,-0.292 -0.208,-0.458c0,-0.133 0.056,-0.317 0.167,-0.55l11.239,-24.11c0.122,-0.255 0.238,-0.421 0.349,-0.499c0.111,-0.078 0.245,-0.117 0.4,-0.117c0.189,0 0.353,0.07 0.491,0.208c0.139,0.139 0.208,0.292 0.208,0.458c0,0.122 -0.055,0.306 -0.166,0.55Z" style="fill-rule:nonzero;"/><path d="M1569.4,370.069l-18.598,0c-0.333,0 -0.572,-0.064 -0.716,-0.192c-0.145,-0.127 -0.217,-0.297 -0.217,-0.507c0,-0.211 0.072,-0.381 0.217,-0.508c0.144,-0.128 0.383,-0.192 0.716,-0.192l18.598,0c0.344,0 0.586,0.064 0.724,0.192c0.139,0.127 0.209,0.297 0.209,0.508c0,0.21 -0.07,0.38 -0.209,0.507c-0.138,0.128 -0.38,0.192 -0.724,0.192Z" style="fill-rule:nonzero;"/><path d="M1586.85,338.816l-11.256,24.11c-0.189,0.41 -0.433,0.616 -0.732,0.616c-0.189,0 -0.353,-0.07 -0.492,-0.208c-0.138,-0.139 -0.208,-0.292 -0.208,-0.458c0,-0.133 0.056,-0.317 0.167,-0.55l11.239,-24.11c0.122,-0.255 0.239,-0.421 0.35,-0.499c0.111,-0.078 0.244,-0.117 0.399,-0.117c0.189,0 0.353,0.07 0.491,0.208c0.139,0.139 0.208,0.292 0.208,0.458c0,0.122 -0.055,0.306 -0.166,0.55Z" style="fill-rule:nonzero;"/><path d="M1610.33,370.069l-18.598,0c-0.333,0 -0.572,-0.064 -0.716,-0.192c-0.145,-0.127 -0.217,-0.297 -0.217,-0.507c0,-0.211 0.072,-0.381 0.217,-0.508c0.144,-0.128 0.383,-0.192 0.716,-0.192l18.598,0c0.344,0 0.586,0.064 0.725,0.192c0.138,0.127 0.208,0.297 0.208,0.508c0,0.21 -0.07,0.38 -0.208,0.507c-0.139,0.128 -0.381,0.192 -0.725,0.192Z" style="fill-rule:nonzero;"/><path d="M1627.78,338.816l-11.256,24.11c-0.188,0.41 -0.433,0.616 -0.732,0.616c-0.189,0 -0.353,-0.07 -0.492,-0.208c-0.138,-0.139 -0.208,-0.292 -0.208,-0.458c0,-0.133 0.056,-0.317 0.167,-0.55l11.239,-24.11c0.122,-0.255 0.239,-0.421 0.35,-0.499c0.111,-0.078 0.244,-0.117 0.399,-0.117c0.189,0 0.353,0.07 0.491,0.208c0.139,0.139 0.208,0.292 0.208,0.458c0,0.122 -0.055,0.306 -0.166,0.55Z" style="fill-rule:nonzero;"/><path d="M803.657,386.881l-0.016,23.327c0,0.333 -0.064,0.572 -0.192,0.716c-0.128,0.145 -0.297,0.217 -0.508,0.217c-0.2,0 -0.366,-0.072 -0.499,-0.217c-0.133,-0.144 -0.2,-0.383 -0.2,-0.716l0,-23.327c0,-0.344 0.067,-0.588 0.2,-0.733c0.133,-0.144 0.299,-0.216 0.499,-0.216c0.211,0 0.383,0.072 0.516,0.216c0.134,0.145 0.2,0.389 0.2,0.733Z" style="fill-rule:nonzero;"/><path d="M844.584,386.881l-0.016,23.327c0,0.333 -0.064,0.572 -0.192,0.716c-0.127,0.145 -0.297,0.217 -0.508,0.217c-0.199,0 -0.366,-0.072 -0.499,-0.217c-0.133,-0.144 -0.2,-0.383 -0.2,-0.716l0,-23.327c0,-0.344 0.067,-0.588 0.2,-0.733c0.133,-0.144 0.3,-0.216 0.499,-0.216c0.211,0 0.383,0.072 0.516,0.216c0.134,0.145 0.2,0.389 0.2,0.733Z" style="fill-rule:nonzero;"/><path d="M803.657,432.981l-0.016,23.328c0,0.333 -0.064,0.571 -0.192,0.716c-0.128,0.144 -0.297,0.216 -0.508,0.216c-0.2,0 -0.366,-0.072 -0.499,-0.216c-0.133,-0.145 -0.2,-0.383 -0.2,-0.716l0,-23.328c0,-0.344 0.067,-0.588 0.2,-0.732c0.133,-0.145 0.299,-0.217 0.499,-0.217c0.211,0 0.383,0.072 0.516,0.217c0.134,0.144 0.2,0.388 0.2,0.732Z" style="fill-rule:nonzero;"/><path d="M832.712,462.269l-18.598,0c-0.333,0 -0.572,-0.063 -0.716,-0.191c-0.144,-0.128 -0.217,-0.297 -0.217,-0.508c0,-0.211 0.073,-0.38 0.217,-0.508c0.144,-0.127 0.383,-0.191 0.716,-0.191l18.598,0c0.345,0 0.586,0.064 0.725,0.191c0.139,0.128 0.208,0.297 0.208,0.508c0,0.211 -0.069,0.38 -0.208,0.508c-0.139,0.128 -0.38,0.191 -0.725,0.191Z" style="fill-rule:nonzero;"/><path d="M844.584,432.981l-0.016,23.328c0,0.333 -0.064,0.571 -0.192,0.716c-0.127,0.144 -0.297,0.216 -0.508,0.216c-0.199,0 -0.366,-0.072 -0.499,-0.216c-0.133,-0.145 -0.2,-0.383 -0.2,-0.716l0,-23.328c0,-0.344 0.067,-0.588 0.2,-0.732c0.133,-0.145 0.3,-0.217 0.499,-0.217c0.211,0 0.383,0.072 0.516,0.217c0.134,0.144 0.2,0.388 0.2,0.732Z" style="fill-rule:nonzero;"/></g></svg>